<svg width="101" height="100" viewBox="0 0 101 100" fill="none" xmlns="http://www.w3.org/2000/svg">
<g opacity="0.8">
<path fill-rule="evenodd" clip-rule="evenodd" d="M1.3594 98.9771H99.3136V1.0224H1.3594V98.9771ZM0.335938 100H100.336V0H0.335938V100Z" fill="black"/>
<path fill-rule="evenodd" clip-rule="evenodd" d="M25.3242 42.2987V26.1471H26.7559V41.0906H32.1022V42.2987H25.3242Z" fill="black"/>
<path fill-rule="evenodd" clip-rule="evenodd" d="M45.2396 36.8403L42.4879 27.7135H42.4433L39.7143 36.8403H45.2396ZM43.3826 26.1473L48.4164 42.2984H46.917L45.6197 38.0484H39.289L38.0138 42.2984H36.582L41.6826 26.1473H43.3826Z" fill="black"/>
<path fill-rule="evenodd" clip-rule="evenodd" d="M54.2305 42.2987V26.1471H55.6622V33.5519H55.7068L61.4337 26.1471H63.1557L57.116 33.6863L63.3348 42.2987H61.5455L55.7068 34.0218H55.6622V42.2987H54.2305Z" fill="black"/>
<path fill-rule="evenodd" clip-rule="evenodd" d="M75.6822 26.1473V27.3554H69.7989V33.3952H75.414V34.6033H69.7989V41.0909H75.8392V42.2989H68.3672V26.1473H75.6822Z" fill="black"/>
<path fill-rule="evenodd" clip-rule="evenodd" d="M32.5587 61.9733C32.5141 59.9824 32.0216 58.7743 29.8297 58.7743C28.0845 58.7743 26.9888 59.3781 26.9888 61.2797C26.9888 63.6733 28.1964 63.7405 30.0308 65.0604C32.0216 66.4916 34.0576 66.9168 34.0576 70.0491C34.0576 72.9346 32.5813 74.3442 29.7625 74.3442C26.6082 74.3442 25.199 72.6437 25.3329 69.4894H26.8093C26.8093 71.2792 26.9437 73.1362 29.8297 73.1362C31.7082 73.1362 32.6259 72.1292 32.6259 70.2727C32.6259 68.0803 31.1716 67.4539 28.8453 66.0222C25.713 64.0985 25.5792 63.1367 25.5566 61.526C25.5345 58.7297 27.3012 57.5663 29.9415 57.5663C33.2969 57.5663 34.0125 59.6464 34.0125 61.9733H32.5587Z" fill="black"/>
<path fill-rule="evenodd" clip-rule="evenodd" d="M42.0504 59.0873H38.1133V57.8793H47.4192V59.0873H43.4821V74.0309H42.0504V59.0873Z" fill="black"/>
<path fill-rule="evenodd" clip-rule="evenodd" d="M58.888 68.5723L56.1364 59.4454H56.0918L53.3627 68.5723H58.888ZM57.0315 57.8793L62.0649 74.0309H60.566L59.2686 69.7803H52.9375L51.6627 74.0309H50.2305L55.331 57.8793H57.0315Z" fill="black"/>
<path fill-rule="evenodd" clip-rule="evenodd" d="M68.8848 64.993H71.2112C73.359 64.993 74.366 64.4338 74.366 61.7268C74.366 59.5123 73.4929 59.0876 71.8149 59.0876H68.8848V64.993ZM74.366 74.0306C74.366 69.0806 74.701 66.201 71.5918 66.201H68.8848V74.0306H67.4531V57.8795H71.9047C75.0144 57.8795 75.7972 58.9085 75.7972 61.7494C75.7972 63.7628 75.4617 65.1048 73.2918 65.5967V65.6419C75.5515 66.1112 75.7972 67.7467 75.7972 72.1516V74.0306H74.366Z" fill="black"/>
<path fill-rule="evenodd" clip-rule="evenodd" d="M25.1133 50.6029H76.0547V49.575H25.1133V50.6029Z" fill="black"/>
</g>
</svg>
