<svg width="119" height="138" viewBox="0 0 119 138" fill="none" xmlns="http://www.w3.org/2000/svg">
<g clip-path="url(#clip0_13990_7614)">
<path d="M42.6354 132.742C42.5479 132.742 42.4564 132.714 42.3849 132.654C42.1303 132.447 16.695 111.88 7.89444 93.8449C-3.74554 69.9526 1.75035 25.7867 1.81 25.3453C1.83386 25.1743 1.96111 25.0351 2.13211 25.0033C2.27925 24.9754 17.0887 22.2474 25.587 18.1911C35.6045 13.415 48.5966 1.19442 48.7238 1.07114C48.867 0.935931 49.0817 0.927977 49.2368 1.0433C49.38 1.15068 63.6486 11.9754 74.2546 15.1409C85.6122 18.5331 104.788 16.7356 104.979 16.7197C105.086 16.7117 105.198 16.7435 105.281 16.8191C105.365 16.8947 105.412 16.9981 105.416 17.1094C105.428 17.6224 106.319 68.6323 89.593 93.8887C85.8508 99.5396 77.8973 108.782 61.2784 120.724C51.3525 127.858 42.9098 132.642 42.8263 132.69C42.7666 132.726 42.699 132.742 42.6314 132.742H42.6354ZM2.56558 25.731C2.11223 29.5765 -2.43718 70.8235 8.61423 93.495C16.9097 110.5 40.2136 129.847 42.6752 131.863C45.6895 130.125 76.6446 112.003 88.9328 93.4512C104.717 69.6265 104.681 22.5337 104.633 17.5548C101.706 17.8014 84.5822 19.062 74.0319 15.9084C64.098 12.9418 51.0582 3.39357 49.03 1.8824C47.1808 3.59638 35.2983 14.445 25.933 18.9109C18.0034 22.6928 4.68917 25.3294 2.56558 25.731Z" fill="#0038FF"/>
<g opacity="0.5">
<path d="M117.184 21.7504C116.981 21.7504 116.806 21.5953 116.786 21.3885C116.766 21.1697 116.93 20.9749 117.148 20.959L117.343 20.9431C117.566 20.9232 117.757 21.0823 117.777 21.301C117.796 21.5197 117.637 21.7146 117.419 21.7344L117.22 21.7543C117.22 21.7543 117.196 21.7543 117.184 21.7543V21.7504Z" fill="#0038FF"/>
<path d="M106.312 22.2316C106.093 22.2316 105.914 22.0566 105.914 21.8339C105.914 21.6152 106.089 21.4363 106.312 21.4363H106.713C106.948 21.4402 107.111 21.6073 107.115 21.826C107.115 22.0447 106.94 22.2237 106.721 22.2276H106.316L106.312 22.2316ZM103.086 22.2077H103.078L102.673 22.1998C102.454 22.1958 102.279 22.0129 102.283 21.7942C102.287 21.5794 102.466 21.4044 102.681 21.4044H102.689L103.09 21.4124C103.309 21.4164 103.484 21.5993 103.48 21.818C103.476 22.0328 103.297 22.2077 103.082 22.2077H103.086ZM109.942 22.164C109.728 22.164 109.553 21.993 109.545 21.7783C109.537 21.5595 109.708 21.3766 109.93 21.3687L110.332 21.3567C110.535 21.3448 110.734 21.5198 110.742 21.7425C110.75 21.9612 110.579 22.1441 110.356 22.1521L109.954 22.164C109.954 22.164 109.946 22.164 109.942 22.164ZM99.4636 22.0765C99.4636 22.0765 99.4477 22.0765 99.4437 22.0765L99.062 22.0566C98.8432 22.0447 98.6643 21.8578 98.6762 21.6351C98.6881 21.4164 98.8631 21.2493 99.0858 21.2613L99.4875 21.2851C99.7062 21.2971 99.8732 21.484 99.8653 21.7027C99.8533 21.9135 99.6784 22.0805 99.4676 22.0805L99.4636 22.0765ZM113.569 22.0049C113.358 22.0049 113.183 21.8419 113.171 21.6311C113.16 21.4124 113.327 21.2255 113.545 21.2136L113.947 21.1897C114.162 21.1738 114.353 21.3448 114.369 21.5635C114.38 21.7822 114.213 21.9691 113.995 21.9851L113.589 22.0089C113.589 22.0089 113.573 22.0089 113.565 22.0089L113.569 22.0049ZM95.8448 21.8061C95.8448 21.8061 95.8209 21.8061 95.805 21.8061L95.4033 21.7663C95.1846 21.7425 95.0255 21.5516 95.0454 21.3329C95.0693 21.1141 95.2602 20.9551 95.4789 20.975L95.8805 21.0147C96.0993 21.0346 96.2583 21.2295 96.2385 21.4482C96.2186 21.655 96.0476 21.8061 95.8448 21.8061ZM92.2418 21.3687C92.2418 21.3687 92.202 21.3687 92.1822 21.3647L91.7805 21.301C91.5618 21.2653 91.4147 21.0624 91.4504 20.8477C91.4862 20.629 91.689 20.4818 91.9038 20.5176L92.2975 20.5773C92.5162 20.6091 92.6634 20.8119 92.6315 21.0306C92.5997 21.2295 92.4327 21.3687 92.2378 21.3687H92.2418ZM88.6747 20.7006C88.6468 20.7006 88.615 20.7006 88.5872 20.6886C88.4559 20.6568 88.3207 20.629 88.1895 20.5972C87.9748 20.5455 87.8435 20.3307 87.8952 20.116C87.9469 19.9012 88.1617 19.77 88.3764 19.8217C88.5037 19.8535 88.6349 19.8813 88.7661 19.9132C88.9809 19.9609 89.1161 20.1756 89.0644 20.3904C89.0206 20.5733 88.8576 20.7006 88.6786 20.7006H88.6747ZM85.1831 19.7183C85.1433 19.7183 85.0996 19.7103 85.0598 19.6984L84.674 19.5712C84.4673 19.4996 84.3559 19.2769 84.4235 19.0661C84.4951 18.8593 84.7178 18.748 84.9286 18.8156L85.3103 18.9428C85.5171 19.0104 85.6324 19.2371 85.5648 19.4439C85.5092 19.6109 85.3541 19.7183 85.187 19.7183H85.1831ZM81.7829 18.4537C81.7312 18.4537 81.6795 18.4418 81.6278 18.4219L81.254 18.2628C81.0512 18.1753 80.9598 17.9407 81.0472 17.7418C81.1347 17.539 81.3694 17.4476 81.5682 17.5351L81.9341 17.6902C82.1369 17.7737 82.2323 18.0083 82.1488 18.2111C82.0852 18.3622 81.938 18.4537 81.7829 18.4537Z" fill="#0038FF"/>
<path d="M78.4819 16.9265C78.4223 16.9265 78.3587 16.9146 78.303 16.8828L78.124 16.7913C77.9292 16.6919 77.8536 16.4533 77.953 16.2545C78.0525 16.0596 78.2911 15.9801 78.4899 16.0835L78.6649 16.1749C78.8597 16.2743 78.9393 16.5129 78.8398 16.7078C78.7683 16.847 78.6291 16.9265 78.4859 16.9265H78.4819Z" fill="#0038FF"/>
</g>
<path d="M54.9911 136.953C54.852 136.953 54.7168 136.881 54.6452 136.75C54.5378 136.559 54.6054 136.317 54.7963 136.209C55.1303 136.019 88.4277 117.077 101.297 97.6627C108.053 87.4663 112.73 72.3983 115.195 52.8725C116.452 42.9345 117.068 32.2132 116.985 21.8657C116.985 21.6191 116.985 21.4402 116.985 21.3368C116.985 21.118 117.164 20.9391 117.382 20.9391C117.601 20.9391 117.78 21.118 117.78 21.3368C117.78 21.4362 117.78 21.6112 117.78 21.8577C117.868 32.2371 117.247 42.9982 115.987 52.9719C113.505 72.621 108.785 87.8043 101.961 98.1041C98.2145 103.755 90.261 112.997 73.6421 124.939C63.7122 132.074 55.2735 136.858 55.19 136.901C55.1264 136.937 55.0627 136.953 54.9951 136.953H54.9911ZM78.3029 16.8391C78.2433 16.8391 78.1796 16.8231 78.12 16.7953C69.558 12.3891 61.1949 5.95467 61.1114 5.89104C60.9364 5.75583 60.9046 5.50529 61.0398 5.33429C61.175 5.15931 61.4216 5.1275 61.5965 5.26271C61.6801 5.32634 69.9875 11.717 78.4858 16.0874C78.6807 16.1869 78.7562 16.4294 78.6568 16.6243C78.5852 16.7595 78.4461 16.8391 78.3029 16.8391Z" fill="#0038FF"/>
<g opacity="0.5">
<path d="M61.211 6.10574C61.1036 6.10574 61.0002 6.06199 60.9207 5.97848C60.7696 5.81941 60.7815 5.5649 60.9406 5.41776L61.0798 5.28652C61.2388 5.13541 61.4934 5.14336 61.6405 5.30243C61.7916 5.4615 61.7837 5.71204 61.6246 5.86315L61.4775 5.99836C61.4019 6.06995 61.3025 6.10574 61.207 6.10574H61.211Z" fill="#0038FF"/>
<path d="M17.8523 29.3418C17.6694 29.3418 17.5024 29.2146 17.4626 29.0277C17.4149 28.8129 17.5501 28.6022 17.7648 28.5544L18.1546 28.4709C18.3733 28.4232 18.5801 28.5624 18.6278 28.7771C18.6755 28.9919 18.5363 29.2027 18.3216 29.2504L17.9358 29.3339C17.908 29.3418 17.8802 29.3418 17.8523 29.3418ZM21.336 28.5584C21.157 28.5584 20.994 28.4351 20.9502 28.2522C20.8985 28.0375 21.0337 27.8227 21.2445 27.775L21.6303 27.6835C21.849 27.6358 22.0597 27.7631 22.1114 27.9778C22.1631 28.1926 22.0319 28.4073 21.8172 28.459L21.4274 28.5505C21.3956 28.5584 21.3678 28.5624 21.336 28.5624V28.5584ZM24.8037 27.6955C24.6287 27.6955 24.4657 27.5762 24.418 27.3972C24.3623 27.1864 24.4895 26.9677 24.7003 26.912L25.0821 26.8126C25.2928 26.757 25.5116 26.8842 25.5672 27.095C25.6229 27.3057 25.4957 27.5245 25.2849 27.5801L24.8991 27.6796C24.8673 27.6875 24.8315 27.6915 24.7997 27.6915L24.8037 27.6955ZM28.2476 26.745C28.0766 26.745 27.9175 26.6337 27.8658 26.4587C27.8062 26.2479 27.9255 26.0292 28.1362 25.9656L28.514 25.8542C28.7248 25.7906 28.9475 25.9139 29.0071 26.1246C29.0708 26.3354 28.9475 26.5581 28.7367 26.6178L28.355 26.7291C28.3192 26.741 28.2794 26.745 28.2436 26.745H28.2476ZM31.6596 25.6872C31.4926 25.6872 31.3375 25.5798 31.2818 25.4128C31.2142 25.206 31.3256 24.9793 31.5324 24.9117L31.9062 24.7885C32.113 24.7208 32.3397 24.8322 32.4112 25.039C32.4828 25.2458 32.3675 25.4725 32.1607 25.544L31.7829 25.6713C31.7431 25.6832 31.6994 25.6912 31.6557 25.6912L31.6596 25.6872ZM35.024 24.4862C34.8649 24.4862 34.7138 24.3908 34.6541 24.2317C34.5746 24.0289 34.678 23.7982 34.8808 23.7187L35.2467 23.5755C35.4495 23.496 35.6801 23.5954 35.7636 23.7982C35.8432 24.0011 35.7438 24.2317 35.541 24.3152L35.1671 24.4624C35.1194 24.4822 35.0717 24.4902 35.024 24.4902V24.4862ZM38.3048 23.0705C38.1577 23.0705 38.0145 22.987 37.9469 22.8478C37.8514 22.649 37.931 22.4143 38.1298 22.3149L38.4838 22.1399C38.6826 22.0405 38.9172 22.124 39.0166 22.3189C39.1161 22.5138 39.0325 22.7524 38.8377 22.8518L38.4798 23.0268C38.4241 23.0546 38.3644 23.0665 38.3048 23.0665V23.0705ZM41.4504 21.3764C41.3152 21.3764 41.18 21.3048 41.1084 21.1815C40.9971 20.9907 41.0607 20.7481 41.2516 20.6367L41.5896 20.4339C41.7765 20.3226 42.0231 20.3822 42.1344 20.5731C42.2458 20.76 42.1861 21.0066 41.9952 21.1179L41.6493 21.3207C41.5856 21.3565 41.518 21.3764 41.4504 21.3764ZM44.4807 19.4835C44.3535 19.4835 44.2262 19.4198 44.1506 19.3045C44.0313 19.1216 44.0791 18.875 44.262 18.7517L44.5921 18.533C44.775 18.4097 45.0215 18.4614 45.1448 18.6444C45.2681 18.8273 45.2164 19.0739 45.0335 19.1971L44.7034 19.4159C44.6358 19.4596 44.5602 19.4835 44.4847 19.4835H44.4807ZM47.4235 17.4513C47.3002 17.4513 47.1769 17.3957 47.1014 17.2843C46.9741 17.1054 47.0139 16.8588 47.1929 16.7276L47.515 16.4969C47.6939 16.3697 47.9405 16.4094 48.0717 16.5844C48.199 16.7634 48.1592 17.0099 47.9842 17.1411L47.6621 17.3718C47.5905 17.4235 47.511 17.4474 47.4315 17.4474L47.4235 17.4513ZM50.2908 15.3198C50.1714 15.3198 50.0521 15.2641 49.9766 15.1647C49.8414 14.9897 49.8772 14.7392 50.0521 14.608L50.3663 14.3654C50.5413 14.2302 50.7878 14.262 50.9231 14.437C51.0583 14.6119 51.0264 14.8625 50.8515 14.9937L50.5373 15.2363C50.4657 15.292 50.3822 15.3198 50.2947 15.3198H50.2908ZM53.0983 13.1087C52.983 13.1087 52.8677 13.057 52.7882 12.9616C52.649 12.7906 52.6768 12.54 52.8478 12.4009L53.154 12.1503C53.325 12.0111 53.5755 12.039 53.7147 12.21C53.8539 12.381 53.8261 12.6315 53.6551 12.7707L53.3449 13.0212C53.2733 13.0809 53.1819 13.1087 53.0944 13.1087H53.0983ZM55.8542 10.834C55.7389 10.834 55.6276 10.7863 55.548 10.6948C55.4049 10.5278 55.4287 10.2773 55.5957 10.1341L55.898 9.87959C56.065 9.73643 56.3155 9.75631 56.4587 9.92334C56.6019 10.0904 56.582 10.3409 56.415 10.4841L56.1127 10.7425C56.0372 10.8062 55.9457 10.838 55.8582 10.838L55.8542 10.834ZM58.5584 8.49966C58.4471 8.49966 58.3397 8.45193 58.2602 8.36444C58.113 8.19742 58.1329 7.94689 58.296 7.80372L58.5942 7.54126C58.7573 7.39412 59.0078 7.41002 59.1549 7.57307C59.3021 7.73612 59.2862 7.98665 59.1231 8.13379L58.8249 8.40024C58.7493 8.46784 58.6539 8.49966 58.5624 8.49966H58.5584Z" fill="#0038FF"/>
<path d="M14.5439 30.201C14.5439 30.201 14.5121 30.201 14.4962 30.201C14.2775 30.1731 14.1224 29.9743 14.1502 29.7556L14.1741 29.5567C14.1979 29.3857 14.3252 29.2466 14.4962 29.2147L14.6871 29.179C14.9018 29.1392 15.1126 29.2823 15.1523 29.4971C15.1881 29.684 15.0847 29.863 14.9177 29.9345C14.862 30.0896 14.7109 30.197 14.5439 30.197V30.201Z" fill="#0038FF"/>
<path d="M52.4423 134.825C52.3508 134.825 52.2594 134.794 52.1838 134.73L51.8816 134.472C51.7146 134.328 51.6947 134.078 51.8378 133.911C51.981 133.744 52.2315 133.724 52.3986 133.867L52.7008 134.126C52.8678 134.269 52.8877 134.519 52.7445 134.686C52.665 134.778 52.5537 134.825 52.4423 134.825ZM49.7461 132.479C49.6506 132.479 49.5592 132.447 49.4836 132.38L49.1853 132.117C49.0223 131.97 49.0064 131.72 49.1496 131.557C49.2967 131.394 49.5472 131.378 49.7103 131.521L50.0085 131.783C50.1716 131.93 50.1875 132.181 50.0443 132.344C49.9648 132.431 49.8574 132.479 49.7461 132.479ZM47.0896 130.089C46.9942 130.089 46.8987 130.053 46.8232 129.986L46.5289 129.715C46.3658 129.568 46.3579 129.314 46.505 129.155C46.6521 128.992 46.9067 128.98 47.0657 129.131L47.356 129.397C47.5191 129.544 47.531 129.795 47.3839 129.958C47.3043 130.045 47.197 130.089 47.0896 130.089ZM44.4729 127.655C44.3735 127.655 44.278 127.62 44.1985 127.548L43.9082 127.274C43.7491 127.123 43.7412 126.872 43.8923 126.713C44.0434 126.554 44.2939 126.546 44.453 126.697L44.7393 126.967C44.8984 127.119 44.9063 127.369 44.7552 127.528C44.6757 127.612 44.5723 127.651 44.4649 127.651L44.4729 127.655ZM41.8959 125.182C41.7965 125.182 41.6971 125.142 41.6176 125.067L41.3352 124.788C41.1801 124.633 41.1761 124.383 41.3312 124.227C41.4863 124.072 41.7369 124.068 41.892 124.223L42.1743 124.502C42.3334 124.657 42.3334 124.907 42.1823 125.063C42.1027 125.142 41.9993 125.182 41.8999 125.182H41.8959ZM39.3627 122.661C39.2594 122.661 39.156 122.621 39.0804 122.541L38.802 122.259C38.6469 122.104 38.6509 121.849 38.806 121.698C38.9611 121.543 39.2156 121.547 39.3667 121.702L39.6451 121.985C39.8002 122.14 39.7962 122.394 39.6411 122.545C39.5656 122.621 39.4622 122.661 39.3627 122.661ZM36.8813 120.092C36.7779 120.092 36.6705 120.052 36.5909 119.968L36.3166 119.678C36.1654 119.519 36.1734 119.268 36.3325 119.117C36.4915 118.966 36.7421 118.974 36.8932 119.133L37.1636 119.42C37.3147 119.579 37.3068 119.829 37.1477 119.98C37.0721 120.052 36.9727 120.088 36.8733 120.088L36.8813 120.092ZM34.4515 117.471C34.3441 117.471 34.2367 117.427 34.1572 117.34L33.8907 117.045C33.7436 116.882 33.7555 116.632 33.9186 116.485C34.0816 116.338 34.3322 116.349 34.4793 116.513L34.7457 116.803C34.8929 116.966 34.8809 117.216 34.7219 117.364C34.6463 117.431 34.5509 117.467 34.4554 117.467L34.4515 117.471ZM32.0813 114.795C31.97 114.795 31.8586 114.747 31.7791 114.655L31.5206 114.353C31.3774 114.186 31.3973 113.936 31.5643 113.792C31.7313 113.649 31.9819 113.669 32.1251 113.836L32.3835 114.138C32.5267 114.305 32.5068 114.556 32.3398 114.699C32.2642 114.763 32.1728 114.795 32.0813 114.795ZM29.7867 112.055C29.6714 112.055 29.5561 112.003 29.4765 111.907L29.226 111.597C29.0868 111.426 29.1146 111.176 29.2856 111.037C29.4566 110.897 29.7072 110.925 29.8464 111.096L30.0929 111.402C30.2321 111.573 30.2083 111.824 30.0373 111.963C29.9617 112.023 29.8742 112.055 29.7867 112.055ZM27.5756 109.247C27.4563 109.247 27.337 109.191 27.2575 109.088L27.0189 108.77C26.8877 108.595 26.9195 108.344 27.0984 108.213C27.2734 108.082 27.5239 108.114 27.6552 108.293L27.8938 108.607C28.025 108.782 27.9932 109.032 27.8182 109.163C27.7466 109.219 27.6631 109.243 27.5796 109.243L27.5756 109.247ZM25.468 106.364C25.3407 106.364 25.2214 106.304 25.1419 106.193L24.9152 105.867C24.7879 105.688 24.8357 105.437 25.0146 105.314C25.1936 105.187 25.4441 105.234 25.5674 105.413L25.7941 105.736C25.9213 105.914 25.8776 106.165 25.6986 106.288C25.631 106.336 25.5475 106.36 25.4719 106.36L25.468 106.364ZM23.4875 103.389C23.3563 103.389 23.2251 103.322 23.1495 103.202L22.9387 102.864C22.8234 102.677 22.8791 102.431 23.066 102.315C23.2529 102.2 23.4955 102.256 23.6148 102.443L23.8256 102.777C23.9409 102.964 23.8852 103.206 23.7023 103.326C23.6347 103.365 23.5631 103.385 23.4915 103.385L23.4875 103.389ZM21.6741 100.315C21.5349 100.315 21.3958 100.24 21.3242 100.108L21.1333 99.7584C21.0299 99.5636 21.1015 99.325 21.2963 99.2216C21.4872 99.1182 21.7298 99.1898 21.8332 99.3846L22.0201 99.7306C22.1275 99.9215 22.0559 100.164 21.861 100.271C21.8014 100.303 21.7338 100.319 21.6702 100.319L21.6741 100.315ZM20.0755 97.1258C19.9244 97.1258 19.7812 97.0383 19.7136 96.8912C19.6579 96.7679 19.6022 96.6486 19.5505 96.5253C19.4631 96.3265 19.5505 96.0879 19.7534 96.0004C19.9522 95.9129 20.1868 96.0004 20.2783 96.2032C20.33 96.3225 20.3857 96.4418 20.4374 96.5611C20.5288 96.76 20.4374 96.9986 20.2385 97.0861C20.1868 97.1099 20.1272 97.1218 20.0755 97.1218V97.1258ZM18.7194 93.8251C18.5563 93.8251 18.4052 93.7257 18.3456 93.5666L18.2064 93.1928C18.1308 92.986 18.2382 92.7593 18.445 92.6838C18.6518 92.6082 18.8785 92.7156 18.954 92.9224L19.0892 93.2922C19.1648 93.499 19.0614 93.7257 18.8546 93.8052C18.8109 93.8211 18.7631 93.8291 18.7154 93.8291L18.7194 93.8251ZM17.5741 90.4449C17.4031 90.4449 17.248 90.3335 17.1923 90.1625L17.077 89.7807C17.0134 89.57 17.1327 89.3473 17.3434 89.2836C17.5542 89.22 17.7769 89.3393 17.8405 89.5501L17.9559 89.9279C18.0195 90.1387 17.9042 90.3614 17.6934 90.425C17.6536 90.4369 17.6139 90.4409 17.5781 90.4409L17.5741 90.4449ZM16.6117 87.009C16.4328 87.009 16.2737 86.8897 16.226 86.7107L16.1266 86.325C16.0749 86.1102 16.2021 85.8955 16.4169 85.8438C16.6316 85.7921 16.8463 85.9193 16.898 86.1341L16.9935 86.5158C17.0492 86.7306 16.9179 86.9453 16.7072 87.001C16.6753 87.0089 16.6396 87.0129 16.6077 87.0129L16.6117 87.009ZM15.8044 83.5333C15.6215 83.5333 15.4545 83.406 15.4147 83.2191L15.3352 82.8294C15.2914 82.6146 15.4306 82.4039 15.6454 82.3601C15.8561 82.3164 16.0709 82.4556 16.1146 82.6703L16.1942 83.0561C16.2379 83.2708 16.1027 83.4816 15.8879 83.5253C15.8601 83.5293 15.8323 83.5333 15.8044 83.5333ZM15.1363 80.0258C14.9455 80.0258 14.7784 79.8906 14.7466 79.6957L14.679 79.302C14.6432 79.0873 14.7904 78.8805 15.0051 78.8447C15.2238 78.8049 15.4266 78.956 15.4624 79.1708L15.53 79.5605C15.5658 79.7752 15.4227 79.982 15.2039 80.0218C15.1801 80.0258 15.1602 80.0258 15.1363 80.0258ZM14.5875 76.4944C14.3927 76.4944 14.2217 76.3512 14.1939 76.1524L14.1382 75.7587C14.1103 75.54 14.2615 75.3411 14.4802 75.3093C14.6989 75.2815 14.8977 75.4326 14.9295 75.6513L14.9852 76.045C15.017 76.2638 14.8619 76.4626 14.6472 76.4944C14.6273 76.4944 14.6114 76.4944 14.5915 76.4944H14.5875ZM14.1461 72.9511C13.9473 72.9511 13.7723 72.8 13.7524 72.5972L13.7087 72.2035C13.6848 71.9848 13.8439 71.7899 14.0626 71.766C14.2853 71.7422 14.4762 71.9013 14.5001 72.12L14.5438 72.5137C14.5677 72.7324 14.4126 72.9273 14.1939 72.9511C14.1779 72.9511 14.162 72.9511 14.1501 72.9511H14.1461ZM13.7962 69.3959C13.5934 69.3959 13.4184 69.2408 13.3985 69.03L13.3667 68.6323C13.3508 68.4136 13.5098 68.2227 13.7325 68.2029C13.9473 68.183 14.1422 68.346 14.162 68.5647L14.1939 68.9584C14.2137 69.1772 14.0507 69.3681 13.832 69.3879C13.82 69.3879 13.8081 69.3879 13.7962 69.3879V69.3959ZM13.5337 65.8367C13.3269 65.8367 13.1519 65.6736 13.136 65.4629L13.1122 65.0692C13.1002 64.8505 13.2673 64.6635 13.486 64.6476C13.7087 64.6317 13.8916 64.8027 13.9075 65.0215L13.9314 65.4152C13.9433 65.6339 13.7803 65.8248 13.5576 65.8367C13.5496 65.8367 13.5417 65.8367 13.5337 65.8367ZM13.3508 62.2735C13.14 62.2735 12.9611 62.1065 12.9531 61.8917L12.9372 61.4941C12.9292 61.2753 13.1002 61.0884 13.319 61.0805C13.5218 61.0805 13.7246 61.2435 13.7325 61.4623L13.7484 61.8599C13.7564 62.0787 13.5854 62.2656 13.3667 62.2735C13.3627 62.2735 13.3548 62.2735 13.3508 62.2735ZM13.2394 58.7064C13.0247 58.7064 12.8457 58.5354 12.8417 58.3166L12.8338 57.919C12.8298 57.7002 13.0048 57.5173 13.2235 57.5133C13.4542 57.5133 13.6252 57.6843 13.6292 57.9031L13.6371 58.3007C13.6411 58.5195 13.4661 58.7024 13.2474 58.7064H13.2394ZM13.1957 55.1352C12.977 55.1352 12.798 54.9563 12.798 54.7376V54.3399C12.798 54.1212 12.977 53.9422 13.1957 53.9422C13.4144 53.9422 13.5934 54.1212 13.5934 54.3399V54.7336C13.5934 54.9523 13.4184 55.1313 13.1957 55.1313V55.1352ZM13.2156 51.5681H13.2116C12.9929 51.5681 12.8179 51.3852 12.8179 51.1664V50.7688C12.8258 50.55 13.0048 50.3751 13.2195 50.3751H13.2235C13.4422 50.3751 13.6172 50.558 13.6172 50.7767V51.1744C13.6093 51.3931 13.4303 51.5681 13.2156 51.5681ZM13.2951 48.0009C13.2951 48.0009 13.2871 48.0009 13.2832 48.0009C13.0644 47.993 12.8895 47.81 12.8974 47.5913L12.9094 47.1937C12.9173 46.9789 13.0923 46.8079 13.307 46.8079C13.311 46.8079 13.315 46.8079 13.319 46.8079C13.5377 46.8159 13.7127 46.9988 13.7047 47.2175L13.6928 47.6112C13.6848 47.826 13.5098 47.997 13.2951 47.997V48.0009ZM13.4303 44.4338C13.4303 44.4338 13.4184 44.4338 13.4144 44.4338C13.1957 44.4258 13.0247 44.2389 13.0326 44.0202L13.0525 43.6225C13.0644 43.4038 13.2593 43.2368 13.4701 43.2447C13.6888 43.2567 13.8598 43.4396 13.8479 43.6623L13.828 44.056C13.82 44.2707 13.6411 44.4378 13.4303 44.4378V44.4338ZM13.6212 40.8706C13.6212 40.8706 13.6053 40.8706 13.5934 40.8706C13.3746 40.8547 13.2076 40.6678 13.2235 40.4491L13.2474 40.0554C13.2593 39.8366 13.4462 39.6696 13.6689 39.6816C13.8876 39.6935 14.0547 39.8844 14.0427 40.1031L14.0189 40.5008C14.0069 40.7115 13.832 40.8746 13.6212 40.8746V40.8706ZM13.8678 37.3074C13.8678 37.3074 13.8479 37.3074 13.8359 37.3074C13.6172 37.2915 13.4542 37.1006 13.4701 36.8819L13.5019 36.4842C13.5178 36.2655 13.7047 36.0985 13.9314 36.1184C14.1501 36.1343 14.3132 36.3291 14.2972 36.5479L14.2654 36.9416C14.2495 37.1484 14.0745 37.3074 13.8678 37.3074ZM14.174 33.7522C14.174 33.7522 14.1501 33.7522 14.1382 33.7522C13.9195 33.7323 13.7564 33.5375 13.7803 33.3187L13.8161 32.9569C13.8359 32.7381 14.0348 32.5632 14.2535 32.583C14.4722 32.6029 14.6353 32.7819 14.6114 33.0006V33.0364L14.5756 33.3943C14.5557 33.6011 14.3847 33.7562 14.1779 33.7562L14.174 33.7522Z" fill="#0038FF"/>
<path d="M54.9913 136.953C54.9038 136.953 54.8163 136.925 54.7447 136.866L54.5896 136.738C54.4186 136.599 54.3948 136.349 54.534 136.178C54.6732 136.007 54.9237 135.983 55.0947 136.122L55.2458 136.245C55.4168 136.38 55.4446 136.631 55.3094 136.806C55.2299 136.905 55.1146 136.957 54.9992 136.957L54.9913 136.953Z" fill="#0038FF"/>
</g>
<path d="M54.9913 136.953C54.9476 136.953 54.9038 136.945 54.8641 136.933L42.5083 132.722C42.3015 132.65 42.1901 132.424 42.2617 132.217C42.3333 132.01 42.56 131.899 42.7667 131.97L55.1225 136.182C55.3293 136.253 55.4407 136.48 55.3691 136.687C55.3134 136.854 55.1583 136.957 54.9913 136.957V136.953Z" fill="#0038FF"/>
<g opacity="0.5">
<path d="M2.39073 25.8543C2.34698 25.8543 2.30324 25.8464 2.26347 25.8345L2.07656 25.7708C1.86977 25.6993 1.75842 25.4726 1.83 25.2658C1.90158 25.059 2.12826 24.9476 2.33505 25.0192L2.52196 25.0829C2.72875 25.1544 2.8401 25.3811 2.76852 25.5879C2.71284 25.7549 2.55775 25.8583 2.39073 25.8583V25.8543Z" fill="#0038FF"/>
<path d="M11.6406 29.0079C11.5968 29.0079 11.5531 29 11.5133 28.988L11.1713 28.8727C10.9645 28.8011 10.8532 28.5745 10.9248 28.3677C10.9963 28.1609 11.223 28.0495 11.4298 28.1211L11.7718 28.2364C11.9786 28.308 12.09 28.5347 12.0184 28.7415C11.9627 28.9085 11.8076 29.0119 11.6406 29.0119V29.0079ZM8.55859 27.9581C8.51485 27.9581 8.4711 27.9501 8.43133 27.9382L8.08933 27.8228C7.88254 27.7513 7.77119 27.5246 7.84278 27.3178C7.91436 27.111 8.14103 26.9997 8.34782 27.0712L8.68982 27.1866C8.89662 27.2582 9.00797 27.4848 8.93638 27.6916C8.88071 27.8586 8.72561 27.962 8.55859 27.962V27.9581ZM5.4766 26.9082C5.43286 26.9082 5.38911 26.9002 5.34935 26.8883L5.00735 26.773C4.80055 26.7014 4.68921 26.4747 4.76079 26.2679C4.83237 26.0611 5.05904 25.9498 5.26584 26.0214L5.60784 26.1367C5.81463 26.2083 5.92598 26.435 5.8544 26.6418C5.79872 26.8088 5.64363 26.9122 5.4766 26.9122V26.9082Z" fill="#0038FF"/>
<path d="M14.5675 30.0022C14.5237 30.0022 14.484 29.9942 14.4402 29.9823L14.2533 29.9187C14.0465 29.8471 13.9352 29.6204 14.0068 29.4136C14.0783 29.2068 14.301 29.0955 14.5118 29.1671L14.6987 29.2307C14.9055 29.3023 15.0169 29.5289 14.9453 29.7357C14.8896 29.9028 14.7345 30.0062 14.5675 30.0062V30.0022Z" fill="#0038FF"/>
</g>
<path d="M61.3539 5.97447C61.3102 5.97447 61.2665 5.96651 61.2267 5.95458L48.8709 1.73922C48.6641 1.66764 48.5528 1.44096 48.6243 1.23417C48.6959 1.02738 48.9226 0.916029 49.1294 0.987611L61.4852 5.20297C61.692 5.27456 61.8033 5.50123 61.7317 5.70802C61.6761 5.87504 61.521 5.97844 61.3539 5.97844V5.97447Z" fill="#0038FF"/>
<path d="M117.379 21.7344C117.335 21.7344 117.291 21.7265 117.251 21.7145L104.896 17.4952C104.689 17.4236 104.577 17.1969 104.649 16.9901C104.721 16.7833 104.947 16.672 105.154 16.7436L117.51 20.9629C117.717 21.0345 117.828 21.2612 117.756 21.468C117.701 21.635 117.546 21.7384 117.379 21.7384V21.7344Z" fill="#0038FF"/>
</g>
<defs>
<clipPath id="clip0_13990_7614">
<rect width="118.222" height="136.694" fill="white" transform="translate(0 0.743057)"/>
</clipPath>
</defs>
</svg>
