<svg width="110" height="141" viewBox="0 0 110 141" fill="none" xmlns="http://www.w3.org/2000/svg">
<g clip-path="url(#clip0_14245_5942)">
<path d="M99.3954 140.09C98.3364 140.09 97.5353 139.78 97.167 139.145C96.2892 137.626 98.2628 134.9 101.654 132.939C105.049 130.98 108.395 130.634 109.273 132.153C110.15 133.672 108.177 136.398 104.785 138.359C102.815 139.498 100.859 140.09 99.3954 140.09ZM107.044 131.812C105.77 131.812 103.944 132.325 101.961 133.47C98.6587 135.376 97.0903 137.785 97.698 138.835C98.3057 139.888 101.176 139.731 104.478 137.825C107.781 135.919 109.349 133.51 108.742 132.46C108.499 132.039 107.894 131.812 107.044 131.812Z" fill="#0038FF"/>
<path d="M57.2192 80.1148C57.1117 80.1148 57.0105 80.0595 56.9521 79.9613C56.2462 78.7397 57.8024 76.5635 60.4911 75.0104C61.7373 74.2922 63.0326 73.8195 64.1375 73.6814C65.3315 73.531 66.1909 73.7949 66.5501 74.4211C66.636 74.5684 66.5838 74.7556 66.4365 74.8416C66.2892 74.9275 66.1019 74.8754 66.016 74.728C65.7889 74.3351 65.132 74.1755 64.2112 74.2922C63.186 74.4211 61.9736 74.8631 60.7981 75.5445C58.2842 76.9963 57.0319 78.8778 57.4831 79.6574C57.5691 79.8048 57.5169 79.992 57.3696 80.0779C57.3205 80.1056 57.2683 80.1178 57.2161 80.1178L57.2192 80.1148Z" fill="#0038FF"/>
<path opacity="0.5" d="M58.1584 80.6887C58.14 80.6887 58.1185 80.6887 58.1001 80.6826C57.9804 80.658 57.8668 80.6273 57.7594 80.5905C57.5998 80.5352 57.5169 80.3572 57.5722 80.1976C57.6274 80.038 57.8054 79.9551 57.965 80.0104C58.0418 80.038 58.1277 80.0595 58.2167 80.0779C58.3825 80.1117 58.493 80.2713 58.4592 80.437C58.4316 80.5843 58.3027 80.6856 58.1584 80.6856V80.6887ZM60.5771 80.4247C60.4451 80.4247 60.3254 80.3388 60.2824 80.2068C60.2333 80.0441 60.3223 79.8723 60.485 79.8231C60.5771 79.7955 60.6722 79.7648 60.7674 79.7311C60.927 79.6758 61.1019 79.7618 61.1572 79.9214C61.2124 80.081 61.1265 80.2559 60.9669 80.3112C60.8656 80.3449 60.7643 80.3787 60.6661 80.4094C60.6354 80.4186 60.6047 80.4217 60.5771 80.4217V80.4247ZM63.0847 79.2799C62.9804 79.2799 62.8791 79.2277 62.8208 79.1325C62.7318 78.9883 62.7809 78.798 62.9251 78.712C63.0111 78.6599 63.097 78.6077 63.1799 78.5555C63.3211 78.4634 63.5114 78.5064 63.6035 78.6476C63.6955 78.7918 63.6526 78.9791 63.5114 79.0712C63.4224 79.1264 63.3334 79.1816 63.2443 79.2369C63.1952 79.2676 63.14 79.2799 63.0847 79.2799ZM65.2486 77.5764C65.1719 77.5764 65.0952 77.5487 65.0369 77.4904C64.9141 77.3738 64.911 77.1804 65.0277 77.0576C65.0952 76.984 65.1627 76.9134 65.2241 76.8397C65.3346 76.7108 65.531 76.6985 65.6569 76.8121C65.7858 76.9226 65.7981 77.119 65.6845 77.2449C65.617 77.3247 65.5433 77.4014 65.4666 77.4812C65.4052 77.5457 65.3254 77.5764 65.2456 77.5764H65.2486ZM66.3966 75.1669C66.2554 75.1669 66.1265 75.0687 66.0958 74.9244C66.0804 74.8538 66.0559 74.7863 66.0221 74.728C65.9362 74.5807 65.9884 74.3934 66.1326 74.3075C66.28 74.2216 66.4672 74.2737 66.5531 74.4211C66.6207 74.5377 66.6698 74.6635 66.6974 74.7955C66.7342 74.9613 66.6268 75.1239 66.461 75.1608C66.4396 75.1669 66.4181 75.1669 66.3966 75.1669Z" fill="#0038FF"/>
<path d="M97.431 139.298C97.3328 139.298 97.2376 139.252 97.1762 139.163L56.9644 79.9829C56.8693 79.8417 56.9061 79.6514 57.0442 79.5563C57.1854 79.4611 57.3757 79.4979 57.4709 79.6391L97.6827 138.82C97.7778 138.961 97.741 139.151 97.6029 139.246C97.5507 139.283 97.4893 139.298 97.431 139.298Z" fill="#0038FF"/>
<path d="M109.006 132.616C108.91 132.616 108.818 132.573 108.76 132.49L66.0405 74.7557C65.9392 74.6206 65.9669 74.4272 66.105 74.326C66.2431 74.2247 66.4334 74.2554 66.5347 74.3904L109.254 132.125C109.355 132.26 109.328 132.454 109.19 132.555C109.134 132.595 109.07 132.616 109.009 132.616H109.006Z" fill="#0038FF"/>
<path d="M67.2959 76.2474C67.2069 76.2474 67.1148 76.2075 67.0565 76.1308C66.9522 75.9988 66.9736 75.8054 67.1056 75.698C76.4826 68.2333 81.8601 57.0884 81.8601 45.1179C81.8601 37.116 79.4568 29.4273 74.9141 22.8772C74.8159 22.7391 74.8527 22.5457 74.9908 22.4506C75.129 22.3524 75.3223 22.3892 75.4175 22.5273C80.0338 29.1786 82.474 36.9902 82.474 45.1179C82.474 57.2756 77.0105 68.5985 67.4862 76.1768C67.431 76.2229 67.3635 76.2443 67.2959 76.2443V76.2474Z" fill="#0038FF"/>
<path opacity="0.5" d="M6.7741 61.3272C6.65746 61.3272 6.54389 61.2597 6.49171 61.143L6.36894 60.8607C6.30141 60.7041 6.37201 60.523 6.52855 60.4586C6.68201 60.391 6.86311 60.4616 6.93063 60.6182L7.05341 60.8975C7.12093 61.054 7.05341 61.2351 6.89687 61.3026C6.85697 61.3211 6.814 61.3303 6.7741 61.3303V61.3272ZM5.74893 58.7643C5.62308 58.7643 5.50645 58.6875 5.46041 58.5617L5.35605 58.2701C5.3008 58.1105 5.38367 57.9356 5.54328 57.8803C5.70289 57.8251 5.87784 57.9079 5.93309 58.0675L6.03438 58.3561C6.0927 58.5157 6.00982 58.6906 5.85022 58.7489C5.81645 58.7612 5.77962 58.7674 5.74586 58.7674L5.74893 58.7643ZM4.90485 56.1338C4.7698 56.1338 4.64702 56.0448 4.61019 55.9098L4.52732 55.612C4.48128 55.4494 4.5795 55.2806 4.74217 55.2345C4.90485 55.1915 5.07366 55.2867 5.11971 55.4494L5.19951 55.744C5.24555 55.9067 5.1504 56.0755 4.98772 56.1216C4.9601 56.1308 4.93247 56.1338 4.90485 56.1338ZM4.25107 53.4512C4.10988 53.4512 3.98097 53.3499 3.95028 53.2057L3.88889 52.9018C3.85512 52.736 3.96562 52.5734 4.13137 52.5427C4.29711 52.5089 4.45979 52.6194 4.49048 52.7852L4.55187 53.0829C4.58563 53.2486 4.47821 53.4113 4.31246 53.4451C4.29098 53.4481 4.26949 53.4512 4.25107 53.4512ZM3.7876 50.7287C3.6372 50.7287 3.50522 50.6151 3.48373 50.4616L3.44383 50.1547C3.42234 49.9859 3.54205 49.8324 3.71086 49.8109C3.87968 49.7895 4.03315 49.9092 4.05463 50.078L4.09454 50.3788C4.11602 50.5476 3.99938 50.7011 3.83057 50.7225C3.81829 50.7225 3.80295 50.7225 3.79067 50.7225L3.7876 50.7287ZM3.51442 47.9816C3.35482 47.9816 3.21976 47.8558 3.20749 47.6931L3.18907 47.3831C3.17986 47.2143 3.30878 47.07 3.47759 47.0608C3.64027 47.0516 3.79067 47.1805 3.79988 47.3493L3.81829 47.6532C3.83057 47.822 3.70166 47.9693 3.53284 47.9785C3.5267 47.9785 3.52056 47.9785 3.51136 47.9785L3.51442 47.9816ZM3.43462 45.2222C3.26581 45.2222 3.12768 45.0841 3.13075 44.9122V44.6022C3.13382 44.4334 3.26887 44.2953 3.44383 44.2984C3.61264 44.2984 3.75077 44.4395 3.7477 44.6084V44.9122C3.74463 45.081 3.60651 45.2161 3.43769 45.2161L3.43462 45.2222ZM3.54512 42.4629C3.54512 42.4629 3.52977 42.4629 3.52363 42.4629C3.35482 42.4506 3.22897 42.3033 3.24125 42.1345L3.26581 41.8244C3.28115 41.6556 3.42234 41.5298 3.5973 41.5451C3.76611 41.5605 3.89196 41.7078 3.87968 41.8766L3.85512 42.1805C3.84285 42.3432 3.70779 42.4659 3.54819 42.4659L3.54512 42.4629ZM3.84592 39.7189C3.84592 39.7189 3.81522 39.7189 3.80295 39.7158C3.63413 39.6912 3.51749 39.5347 3.54205 39.369L3.58809 39.062C3.61264 38.8932 3.77225 38.7796 3.938 38.8042C4.10681 38.8287 4.22038 38.9853 4.19582 39.1541L4.14978 39.4549C4.1283 39.6084 3.99632 39.7189 3.84592 39.7189ZM4.33702 37.0025C4.31553 37.0025 4.29404 37.0025 4.27256 36.9963C4.10681 36.9595 4.00245 36.7968 4.03929 36.6311L4.10681 36.3303C4.14365 36.1645 4.30632 36.0602 4.47514 36.097C4.64088 36.1338 4.74524 36.2996 4.70841 36.4653L4.64088 36.7631C4.61019 36.9073 4.48128 37.0055 4.34009 37.0055L4.33702 37.0025ZM5.01842 34.326C4.99079 34.326 4.9601 34.3229 4.93247 34.3137C4.7698 34.2646 4.67772 34.0958 4.72376 33.9331L4.81277 33.6354C4.86188 33.4727 5.03376 33.3806 5.19644 33.4297C5.35912 33.4788 5.4512 33.6507 5.40209 33.8134L5.31614 34.105C5.27624 34.24 5.15347 34.326 5.02149 34.326H5.01842ZM5.89012 31.7017C5.85328 31.7017 5.81952 31.6955 5.78269 31.6833C5.62308 31.6249 5.54328 31.4469 5.6016 31.2873L5.71209 30.9957C5.77348 30.8361 5.94844 30.7563 6.10804 30.8177C6.26765 30.8791 6.34438 31.054 6.28607 31.2136L6.17864 31.4991C6.1326 31.6219 6.01596 31.6986 5.89012 31.6986V31.7017ZM6.94598 29.1449C6.90301 29.1449 6.86004 29.1357 6.82014 29.1173C6.66667 29.0467 6.59914 28.8656 6.66667 28.7121L6.79558 28.4297C6.86618 28.2763 7.05034 28.2087 7.20381 28.2793C7.35728 28.3499 7.4248 28.5341 7.35421 28.6876L7.22529 28.9638C7.17311 29.0774 7.06262 29.1449 6.94598 29.1449ZM8.17987 26.671C8.13076 26.671 8.08165 26.6587 8.03254 26.6342C7.88214 26.5543 7.82689 26.3671 7.90976 26.2167L8.06016 25.9435C8.14303 25.7962 8.33027 25.741 8.4776 25.8238C8.62493 25.9067 8.68017 26.0939 8.5973 26.2413L8.44997 26.5083C8.39472 26.6096 8.29036 26.6679 8.17987 26.6679V26.671ZM9.58257 24.2892C9.52732 24.2892 9.469 24.2738 9.41682 24.24C9.27256 24.148 9.23266 23.9577 9.32474 23.8165L9.49049 23.5556C9.58257 23.4144 9.77287 23.3714 9.91406 23.4635C10.0553 23.5556 10.0982 23.7459 10.0061 23.8871L9.8404 24.1449C9.78208 24.237 9.68386 24.2861 9.58257 24.2861V24.2892ZM75.1689 23.0092C75.0707 23.0092 74.9755 22.9632 74.9172 22.8772L74.8006 22.7115C74.7023 22.5734 74.7361 22.38 74.8773 22.2849C75.0154 22.1866 75.2088 22.2204 75.3039 22.3616L75.4206 22.5304C75.5157 22.6685 75.482 22.8619 75.3438 22.9571C75.2917 22.9939 75.2303 23.0123 75.1689 23.0123V23.0092ZM11.1479 22.0117C11.0835 22.0117 11.019 21.9933 10.9669 21.9503C10.8318 21.849 10.8011 21.6587 10.9024 21.5206C10.9638 21.4377 11.0252 21.3548 11.0866 21.272C11.1878 21.1369 11.3812 21.1093 11.5163 21.2106C11.6513 21.3119 11.679 21.5052 11.5777 21.6403L11.3966 21.8828C11.3352 21.9656 11.2431 22.0086 11.151 22.0086L11.1479 22.0117ZM73.5789 20.876C73.4899 20.876 73.4009 20.8361 73.3395 20.7594L73.1492 20.523C73.0418 20.3911 73.0633 20.1977 73.1953 20.0903C73.3273 19.9828 73.5206 20.0043 73.6281 20.1363L73.8214 20.3757C73.9258 20.5077 73.9043 20.7011 73.7723 20.8085C73.7171 20.8545 73.6495 20.876 73.582 20.876H73.5789ZM12.8699 19.8508C12.7993 19.8508 12.7287 19.8263 12.6704 19.7772C12.5414 19.6667 12.5261 19.4733 12.6366 19.3444L12.8392 19.1111C12.9497 18.9822 13.1461 18.9699 13.272 19.0804C13.4009 19.1909 13.4131 19.3843 13.3026 19.5132L13.1031 19.7434C13.0417 19.814 12.9558 19.8508 12.8699 19.8508ZM71.7834 18.7796C71.7005 18.7796 71.6176 18.7459 71.5562 18.6814L71.3506 18.4574C71.2339 18.3346 71.2401 18.1381 71.3659 18.0246C71.4887 17.9079 71.6851 17.9141 71.7987 18.0399L72.0105 18.2671C72.1241 18.3929 72.1179 18.5863 71.9921 18.6998C71.9338 18.7551 71.8601 18.7796 71.7834 18.7796ZM14.7391 17.8159C14.6624 17.8159 14.5826 17.7852 14.5243 17.7268C14.4046 17.6071 14.4015 17.4138 14.5212 17.2941C14.5949 17.2204 14.6654 17.1467 14.7391 17.0731C14.8588 16.9534 15.0522 16.9534 15.1719 17.0731C15.2916 17.1928 15.2916 17.3861 15.1719 17.5059L14.957 17.7207C14.8956 17.7821 14.8189 17.8128 14.7391 17.8128V17.8159ZM69.8466 16.8152C69.7699 16.8152 69.6962 16.7876 69.6348 16.7324L69.4138 16.5237C69.288 16.407 69.2818 16.2137 69.3985 16.0909C69.5151 15.9681 69.7085 15.9589 69.8312 16.0755L70.0584 16.2873C70.1811 16.404 70.1873 16.5973 70.0707 16.7201C70.0093 16.7846 69.9295 16.8152 69.8466 16.8152ZM16.7434 15.9159C16.6575 15.9159 16.5746 15.8822 16.5132 15.8116C16.3996 15.6857 16.4119 15.4893 16.5408 15.3788L16.7741 15.1762C16.903 15.0657 17.0964 15.078 17.2069 15.2069C17.3174 15.3358 17.3051 15.5292 17.1762 15.6397L16.946 15.8392C16.8877 15.8914 16.814 15.9159 16.7434 15.9159ZM67.7748 14.989C67.7072 14.989 67.6366 14.9675 67.5814 14.9184C67.5047 14.8539 67.4249 14.7895 67.3451 14.725C67.2131 14.6176 67.1916 14.4242 67.299 14.2922C67.4064 14.1602 67.5998 14.1388 67.7318 14.2462C67.8116 14.3106 67.8914 14.3751 67.9712 14.4426C68.1032 14.5501 68.1216 14.7434 68.0142 14.8754C67.9528 14.9491 67.8668 14.9859 67.7778 14.9859L67.7748 14.989ZM18.8766 14.1633C18.7845 14.1633 18.6925 14.1234 18.6341 14.0436C18.5298 13.9086 18.5574 13.7152 18.6894 13.6139L18.9349 13.4267C19.07 13.3254 19.2634 13.353 19.3647 13.4881C19.4659 13.6231 19.4414 13.8165 19.3033 13.9178L19.0608 14.1019C19.0055 14.1449 18.938 14.1664 18.8736 14.1664L18.8766 14.1633ZM65.5832 13.3131C65.5218 13.3131 65.4605 13.2947 65.4052 13.2579L65.1566 13.0829C65.0185 12.9847 64.9847 12.7944 65.0799 12.6563C65.1781 12.5181 65.3684 12.4844 65.5065 12.5795L65.7582 12.7575C65.8963 12.8558 65.9301 13.0461 65.8319 13.1842C65.7735 13.2671 65.6784 13.3131 65.5802 13.3131H65.5832ZM21.1265 12.5642C21.0283 12.5642 20.93 12.5151 20.8717 12.4261C20.7796 12.2849 20.8165 12.0946 20.9577 11.9994L21.2155 11.8306C21.3567 11.7385 21.547 11.7784 21.6391 11.9196C21.7311 12.0608 21.6912 12.2511 21.55 12.3432L21.2953 12.5089C21.2431 12.5427 21.1848 12.5611 21.1265 12.5611V12.5642ZM63.2781 11.7938C63.2229 11.7938 63.1676 11.7784 63.1185 11.7477L62.8576 11.5912C62.7134 11.5052 62.6643 11.3149 62.7533 11.1707C62.8392 11.0264 63.0295 10.9773 63.1738 11.0663L63.4377 11.2259C63.582 11.3149 63.628 11.5022 63.539 11.6464C63.4807 11.7416 63.3794 11.7938 63.2751 11.7938H63.2781ZM23.4807 11.1246C23.3733 11.1246 23.2689 11.0694 23.2136 10.9681C23.1308 10.8208 23.183 10.6335 23.3303 10.5507L23.6004 10.4003C23.7477 10.3174 23.9349 10.3726 24.0178 10.52C24.1007 10.6673 24.0454 10.8545 23.8981 10.9374L23.6341 11.0847C23.585 11.1124 23.5359 11.1246 23.4837 11.1246H23.4807ZM60.8718 10.4402C60.8257 10.4402 60.7766 10.4279 60.7306 10.4064L60.4605 10.2683C60.3101 10.1916 60.2487 10.0074 60.3254 9.85699C60.4021 9.70659 60.5863 9.64521 60.7367 9.72194L61.0129 9.86313C61.1633 9.93986 61.2217 10.1271 61.1449 10.2775C61.0897 10.3819 60.9823 10.4432 60.8718 10.4432V10.4402ZM25.927 9.85392C25.8134 9.85392 25.7029 9.78947 25.6507 9.67897C25.5771 9.5255 25.6446 9.34134 25.795 9.27074L26.0743 9.13876C26.2278 9.06816 26.4119 9.13262 26.4825 9.28609C26.5531 9.43956 26.4887 9.62372 26.3352 9.69432L26.062 9.82323C26.019 9.84471 25.973 9.85392 25.93 9.85392H25.927ZM58.3733 9.25847C58.3334 9.25847 58.2904 9.24926 58.2505 9.23391L57.9681 9.1142C57.8116 9.04975 57.7379 8.86866 57.8055 8.71212C57.8699 8.55558 58.051 8.48192 58.2075 8.54944L58.493 8.67222C58.6495 8.73974 58.7201 8.92084 58.6526 9.0743C58.6035 9.19094 58.4899 9.25847 58.3702 9.25847H58.3733ZM28.4561 8.75816C28.3334 8.75816 28.2167 8.68449 28.1707 8.56172C28.1093 8.40518 28.186 8.22716 28.3456 8.1627L28.6342 8.0522C28.7907 7.99082 28.9687 8.07062 29.0301 8.23023C29.0915 8.38983 29.0117 8.56479 28.8521 8.62618L28.5666 8.73667C28.5298 8.75202 28.493 8.75816 28.4561 8.75816ZM55.8012 8.25478C55.7674 8.25478 55.7336 8.24864 55.6999 8.23637L55.4113 8.13815C55.2517 8.0829 55.1658 7.90794 55.221 7.74834C55.2763 7.58873 55.4512 7.50279 55.6108 7.55804L55.9055 7.65933C56.0651 7.71457 56.1511 7.88953 56.0927 8.04913C56.0498 8.17498 55.9301 8.25478 55.8042 8.25478H55.8012ZM31.062 7.84349C30.93 7.84349 30.8103 7.76061 30.7674 7.62863C30.7183 7.46596 30.8073 7.29407 30.9699 7.24496L31.2646 7.15288C31.4273 7.10377 31.5992 7.19585 31.6483 7.35853C31.6974 7.5212 31.6053 7.69309 31.4426 7.7422L31.151 7.83121C31.1203 7.84042 31.0896 7.84656 31.059 7.84656L31.062 7.84349ZM53.1646 7.43526C53.1369 7.43526 53.1093 7.43219 53.0848 7.42298L52.7901 7.34318C52.6274 7.30021 52.5292 7.13139 52.5722 6.96872C52.6151 6.80604 52.787 6.70782 52.9466 6.75079L53.2474 6.8306C53.4101 6.87664 53.5083 7.04238 53.4623 7.20813C53.4255 7.34625 53.3027 7.43526 53.1676 7.43526H53.1646ZM33.7262 7.11298C33.5881 7.11298 33.4623 7.01783 33.4285 6.87664C33.3886 6.71089 33.493 6.54515 33.6556 6.50831L33.9564 6.43772C34.1222 6.40088 34.2849 6.50217 34.3248 6.66792C34.3616 6.83367 34.2603 6.99634 34.0946 7.03624L33.7968 7.10377C33.7723 7.10991 33.7508 7.11298 33.7262 7.11298ZM50.4758 6.80604C50.4574 6.80604 50.4359 6.80604 50.4175 6.7999L50.1167 6.74158C49.9509 6.71089 49.8404 6.54821 49.8711 6.38247C49.9018 6.21672 50.0645 6.10623 50.2302 6.13692L50.5341 6.19524C50.6999 6.229 50.8073 6.38861 50.7766 6.55435C50.749 6.70168 50.6201 6.80297 50.4758 6.80297V6.80604ZM36.4334 6.57277C36.2861 6.57277 36.1541 6.46534 36.1296 6.31494C36.1019 6.14613 36.2155 5.98959 36.3843 5.96197L36.6882 5.91286C36.857 5.88523 37.0135 6.00187 37.0381 6.16761C37.0626 6.33643 36.9491 6.49297 36.7833 6.51752L36.4825 6.56663C36.4672 6.56663 36.4488 6.5697 36.4334 6.5697V6.57277ZM47.7471 6.36405C47.7471 6.36405 47.7226 6.36405 47.7103 6.36405L47.4064 6.32722C47.2376 6.3088 47.1179 6.15534 47.1363 5.98652C47.1547 5.8177 47.3143 5.698 47.477 5.71642L47.784 5.75325C47.9528 5.77473 48.0725 5.9282 48.051 6.09702C48.0326 6.25356 47.9006 6.36712 47.7471 6.36712V6.36405ZM39.1713 6.22286C39.0148 6.22286 38.8797 6.10316 38.8644 5.94355C38.849 5.77473 38.9718 5.62433 39.1437 5.60899L39.4506 5.58136C39.6164 5.56602 39.7698 5.69186 39.7821 5.86068C39.7975 6.02949 39.6716 6.17682 39.5028 6.19217L39.1989 6.21979C39.1989 6.21979 39.1805 6.21979 39.1713 6.21979V6.22286ZM44.997 6.11543C44.997 6.11543 44.9847 6.11543 44.9785 6.11543L44.6747 6.10009C44.5059 6.09088 44.3739 5.94969 44.3831 5.7778C44.3923 5.60899 44.5304 5.47701 44.7054 5.48621L45.0154 5.50156C45.1842 5.51077 45.3131 5.65503 45.3039 5.82384C45.2947 5.98652 45.1596 6.11543 44.997 6.11543ZM41.9307 6.06632C41.7649 6.06632 41.6268 5.93434 41.6237 5.76553C41.6207 5.59671 41.7557 5.45552 41.9245 5.45245L42.2345 5.44631C42.4003 5.44631 42.5445 5.57829 42.5445 5.75018C42.5445 5.91899 42.4126 6.06019 42.2407 6.06019L41.9368 6.06632H41.9307Z" fill="#0038FF"/>
<path d="M42.7993 84.7956C27.0933 84.7956 12.8422 75.5107 6.49172 61.143C6.42419 60.9865 6.49172 60.8054 6.64826 60.7379C6.80479 60.6704 6.98589 60.7379 7.05341 60.8944C13.3057 75.0411 27.3358 84.1817 42.7993 84.1817C48.1216 84.1817 53.2843 83.1289 58.1369 81.0571C58.2904 80.9896 58.4715 81.0632 58.539 81.2198C58.6065 81.3763 58.5329 81.5574 58.3763 81.6219C53.4469 83.7274 48.2045 84.7987 42.7993 84.7987V84.7956Z" fill="#0038FF"/>
<path d="M39.6746 79.4396C17.7993 79.4396 0 61.6434 0 39.7649C0 17.8865 17.7993 0.0902786 39.6746 0.0902786C61.55 0.0902786 79.3493 17.8895 79.3493 39.7649C79.3493 61.6403 61.55 79.4396 39.6746 79.4396ZM39.6746 0.704152C18.1369 0.704152 0.613874 18.2272 0.613874 39.7649C0.613874 61.3027 18.1369 78.8257 39.6746 78.8257C61.2124 78.8257 78.7354 61.3027 78.7354 39.7649C78.7354 18.2272 61.2124 0.704152 39.6746 0.704152Z" fill="#0038FF"/>
<path d="M39.6747 75.9742C19.7084 75.9742 3.46532 59.7312 3.46532 39.7649C3.46532 19.7987 19.7084 3.55561 39.6747 3.55561C59.6409 3.55561 75.884 19.7987 75.884 39.7649C75.884 59.7312 59.6409 75.9742 39.6747 75.9742ZM39.6747 4.16948C20.0461 4.16948 4.07919 20.1363 4.07919 39.7649C4.07919 59.3935 20.0461 75.3604 39.6747 75.3604C59.3033 75.3604 75.2702 59.3935 75.2702 39.7649C75.2702 20.1363 59.3033 4.16948 39.6747 4.16948Z" fill="#0038FF"/>
<path opacity="0.5" d="M43.539 80.7318C43.3733 80.7318 43.2351 80.5998 43.2321 80.431C43.229 80.2622 43.361 80.121 43.5329 80.1179L43.8367 80.1087C44.0086 80.1026 44.1468 80.2376 44.1529 80.4065C44.159 80.5753 44.024 80.7165 43.8552 80.7226L43.5452 80.7318H43.539ZM41.0866 80.7073C41.0866 80.7073 41.0774 80.7073 41.0743 80.7073L40.7643 80.6919C40.5955 80.6827 40.4635 80.5384 40.4727 80.3696C40.4819 80.2008 40.6262 80.0688 40.795 80.078L41.0989 80.0934C41.2677 80.0995 41.3997 80.2438 41.3935 80.4126C41.3874 80.5783 41.2493 80.7073 41.0866 80.7073ZM46.2953 80.563C46.1388 80.563 46.0068 80.4464 45.9914 80.2868C45.9761 80.1179 46.0989 79.9675 46.2677 79.9522L46.5716 79.9215C46.7404 79.9031 46.8908 80.0259 46.9092 80.1947C46.9276 80.3635 46.8048 80.5139 46.636 80.5323L46.3291 80.563C46.3291 80.563 46.3076 80.563 46.2984 80.563H46.2953ZM38.3364 80.4832C38.3364 80.4832 38.3119 80.4832 38.2996 80.4832L37.9927 80.4464C37.8238 80.4249 37.7072 80.2714 37.7287 80.1026C37.7502 79.9338 37.9067 79.8141 38.0725 79.8386L38.3733 79.8755C38.5421 79.8969 38.6618 80.0473 38.6403 80.2162C38.6219 80.3727 38.4899 80.4863 38.3364 80.4863V80.4832ZM49.0301 80.1824C48.8828 80.1824 48.7539 80.078 48.7293 79.9307C48.6986 79.765 48.8091 79.6054 48.9779 79.5747L49.2757 79.5194C49.4445 79.4887 49.6041 79.5992 49.6348 79.765C49.6655 79.9307 49.5581 80.0934 49.3892 80.1241L49.0854 80.1793C49.067 80.1824 49.0485 80.1855 49.0301 80.1855V80.1824ZM35.6108 80.0473C35.5924 80.0473 35.5709 80.0473 35.5494 80.0412L35.2456 79.9798C35.0798 79.9461 34.9724 79.7834 35.0092 79.6176C35.043 79.4519 35.2057 79.3445 35.3714 79.3813L35.6691 79.4427C35.8349 79.4764 35.9423 79.636 35.9116 79.8049C35.884 79.9522 35.7551 80.0504 35.6108 80.0504V80.0473ZM51.7281 79.5931C51.593 79.5931 51.4672 79.501 51.4304 79.3629C51.3874 79.2002 51.4856 79.0314 51.6514 78.9884L51.946 78.9117C52.1087 78.8687 52.2775 78.9639 52.3236 79.1296C52.3665 79.2923 52.2714 79.4611 52.1056 79.5071L51.8048 79.5869C51.7803 79.5931 51.7527 79.5961 51.7281 79.5961V79.5931ZM32.9251 79.4028C32.8975 79.4028 32.8699 79.3997 32.8423 79.3905L32.5445 79.3046C32.3819 79.2585 32.2898 79.0866 32.3358 78.924C32.3819 78.7613 32.5507 78.6661 32.7164 78.7152L33.008 78.7981C33.1707 78.8441 33.2658 79.013 33.2198 79.1756C33.183 79.3107 33.0571 79.3997 32.9251 79.3997V79.4028ZM54.3708 78.7981C54.2419 78.7981 54.1253 78.7183 54.0792 78.5925C54.024 78.4329 54.1099 78.2579 54.2695 78.2027L54.5581 78.1014C54.7177 78.0461 54.8926 78.129 54.9509 78.2886C55.0062 78.4482 54.9233 78.6232 54.7637 78.6815L54.4721 78.7828C54.4384 78.795 54.4046 78.7981 54.3708 78.7981ZM30.2978 78.5526C30.264 78.5526 30.2272 78.5464 30.1934 78.5341L29.9018 78.4267C29.7422 78.3653 29.6624 78.1904 29.7238 78.0308C29.7852 77.8712 29.9601 77.7914 30.1197 77.8527L30.4052 77.9602C30.5648 78.0185 30.6446 78.1934 30.5863 78.3531C30.5402 78.4758 30.4236 78.5556 30.2978 78.5556V78.5526ZM56.9399 77.8006C56.8202 77.8006 56.7097 77.73 56.6575 77.6164C56.59 77.4599 56.6606 77.2788 56.8171 77.2113L57.0934 77.0885C57.2468 77.021 57.431 77.0885 57.4985 77.245C57.566 77.3985 57.4985 77.5826 57.342 77.6502L57.0596 77.7729C57.0197 77.7914 56.9798 77.7975 56.9368 77.7975L56.9399 77.8006ZM27.741 77.4998C27.698 77.4998 27.655 77.4906 27.6121 77.4721L27.3297 77.3402C27.1762 77.2696 27.1087 77.0854 27.1823 76.9319C27.2529 76.7785 27.4371 76.7109 27.5906 76.7846L27.8668 76.9135C28.0203 76.9841 28.0878 77.1652 28.0172 77.3217C27.965 77.4353 27.8545 77.4998 27.7379 77.4998H27.741ZM59.4261 76.6066C59.3156 76.6066 59.2081 76.5483 59.156 76.4439C59.0762 76.2935 59.1345 76.1093 59.2849 76.0295L59.5519 75.8853C59.7023 75.8055 59.8865 75.8607 59.9694 76.0081C60.0492 76.1585 59.9939 76.3426 59.8466 76.4255L59.5734 76.5697C59.5274 76.5943 59.4783 76.6066 59.4291 76.6066H59.4261ZM25.2732 76.2505C25.2241 76.2505 25.1719 76.2383 25.1259 76.2106L24.8558 76.0602C24.7084 75.9774 24.6562 75.7901 24.7391 75.6428C24.822 75.4955 25.0092 75.4433 25.1566 75.5262L25.4236 75.6766C25.5709 75.7594 25.6262 75.9467 25.5433 76.094C25.4881 76.1953 25.3837 76.2505 25.2732 76.2505ZM61.814 75.2254C61.7128 75.2254 61.6115 75.1732 61.5531 75.0811C61.4641 74.9369 61.5071 74.7496 61.6483 74.6575C61.7342 74.6023 61.8202 74.5501 61.9031 74.4949C62.0442 74.4028 62.2345 74.4457 62.3266 74.5869C62.4187 74.7281 62.3788 74.9184 62.2345 75.0105C62.1486 75.0658 62.0596 75.121 61.9737 75.1763C61.9215 75.207 61.8662 75.2223 61.811 75.2223L61.814 75.2254ZM22.9128 74.8171C22.8545 74.8171 22.7962 74.8018 22.744 74.765L22.4862 74.5931C22.345 74.4979 22.3082 74.3076 22.4033 74.1664C22.4985 74.0252 22.6888 73.9884 22.83 74.0836L23.0847 74.2524C23.2259 74.3445 23.2658 74.5348 23.1707 74.679C23.1124 74.768 23.0141 74.8171 22.9159 74.8171H22.9128ZM64.0915 73.6631C63.9964 73.6631 63.9043 73.6201 63.846 73.5403C63.7447 73.4052 63.7723 73.2119 63.9074 73.1106L64.1498 72.9264C64.2849 72.8251 64.4783 72.8497 64.5795 72.9847C64.6808 73.1198 64.6563 73.3131 64.5212 73.4144L64.2757 73.5986C64.2204 73.6385 64.156 73.66 64.0915 73.66V73.6631ZM20.6691 73.2057C20.6047 73.2057 20.5372 73.1842 20.4819 73.1413C20.399 73.0768 20.3192 73.0154 20.2394 72.951C20.1074 72.8466 20.0829 72.6532 20.1903 72.5213C20.2947 72.3893 20.488 72.3647 20.62 72.4721C20.6998 72.5335 20.7796 72.598 20.8594 72.6594C20.9945 72.7637 21.019 72.9571 20.9147 73.0891C20.8533 73.1658 20.7643 73.2088 20.6722 73.2088L20.6691 73.2057ZM66.2401 71.9319C66.1541 71.9319 66.0682 71.8951 66.0099 71.8276C65.8994 71.6987 65.9117 71.5053 66.0406 71.3948C66.1173 71.3273 66.194 71.2628 66.2677 71.1953C66.3935 71.0817 66.5869 71.094 66.7005 71.2198C66.814 71.3457 66.8018 71.5421 66.6759 71.6526C66.5992 71.7201 66.5225 71.7907 66.4427 71.8583C66.3843 71.9074 66.3137 71.9319 66.2401 71.9319ZM18.5543 71.4316C18.4807 71.4316 18.407 71.404 18.3487 71.3518C18.272 71.2812 18.1952 71.2137 18.1185 71.1431C17.9926 71.0265 17.9865 70.8331 18.1031 70.7103C18.2198 70.5845 18.4132 70.5783 18.5359 70.695C18.6096 70.7625 18.6863 70.8331 18.76 70.9006C18.8858 71.0142 18.895 71.2076 18.7815 71.3334C18.7201 71.4009 18.6372 71.4347 18.5543 71.4347V71.4316ZM68.2505 70.0412C68.1738 70.0412 68.094 70.0105 68.0357 69.9522C67.916 69.8325 67.9129 69.6391 68.0357 69.5194C68.1063 69.4488 68.1768 69.3752 68.2474 69.3015C68.3641 69.1787 68.5605 69.1756 68.6802 69.2953C68.803 69.412 68.8061 69.6084 68.6864 69.7281C68.6158 69.8018 68.5421 69.8755 68.4684 69.9491C68.4071 70.0105 68.3303 70.0412 68.2505 70.0412ZM16.5807 69.4979C16.4979 69.4979 16.4181 69.4642 16.3567 69.4028L16.1449 69.1787C16.0283 69.0559 16.0375 68.8595 16.1602 68.7459C16.283 68.6293 16.4795 68.6385 16.593 68.7613L16.8017 68.9823C16.9184 69.105 16.9122 69.2984 16.7895 69.4151C16.7311 69.4703 16.6544 69.4979 16.5777 69.4979H16.5807ZM70.1105 68.0031C70.04 68.0031 69.9694 67.9786 69.911 67.9295C69.7821 67.819 69.7668 67.6256 69.8742 67.4967C69.9387 67.42 70.0031 67.3402 70.0706 67.2634C70.1781 67.1345 70.3714 67.1161 70.5034 67.2235C70.6323 67.331 70.6508 67.5243 70.5433 67.6563C70.4789 67.7361 70.4113 67.8159 70.3438 67.8926C70.2824 67.9632 70.1965 68.0001 70.1105 68.0001V68.0031ZM14.7606 67.423C14.6716 67.423 14.5826 67.3831 14.5212 67.3095L14.3278 67.067C14.2235 66.935 14.2449 66.7416 14.3769 66.6342C14.5089 66.5298 14.7023 66.5513 14.8097 66.6833L15 66.9197C15.1074 67.0516 15.086 67.245 14.954 67.3524C14.8987 67.3985 14.8281 67.42 14.7606 67.42V67.423ZM71.811 65.827C71.7496 65.827 71.6851 65.8085 71.633 65.7686C71.4948 65.6704 71.4641 65.4771 71.5624 65.3389L71.7404 65.0903C71.8386 64.9522 72.0289 64.9184 72.167 65.0166C72.3051 65.1149 72.3389 65.3052 72.2407 65.4433L72.0627 65.695C72.0013 65.7779 71.9092 65.8239 71.8141 65.8239L71.811 65.827ZM13.1062 65.2131C13.008 65.2131 12.9128 65.167 12.8545 65.0811L12.6796 64.8263C12.5844 64.6852 12.6213 64.4949 12.7594 64.3997C12.9006 64.3046 13.0909 64.3414 13.186 64.4795L13.3579 64.7312C13.4531 64.8693 13.4193 65.0627 13.2781 65.1578C13.2259 65.1947 13.1645 65.2131 13.1031 65.2131H13.1062ZM73.3395 63.528C73.2843 63.528 73.229 63.5127 73.1799 63.482C73.0357 63.393 72.9896 63.2057 73.0786 63.0615L73.2352 62.8006C73.3211 62.6563 73.5114 62.6072 73.6557 62.6962C73.7999 62.7822 73.849 62.9724 73.76 63.1167L73.6004 63.3807C73.5421 63.4758 73.4408 63.528 73.3395 63.528ZM11.6298 62.8834C11.5255 62.8834 11.4211 62.8282 11.3628 62.73L11.2093 62.4629C11.1265 62.3156 11.1756 62.1284 11.3229 62.0455C11.4702 61.9626 11.6575 62.0117 11.7403 62.1591L11.8907 62.423C11.9767 62.5704 11.9276 62.7576 11.7802 62.8435C11.7311 62.8712 11.679 62.8865 11.6268 62.8865L11.6298 62.8834ZM74.6901 61.1155C74.644 61.1155 74.5949 61.1063 74.5519 61.0817C74.4015 61.005 74.3401 60.8208 74.4169 60.6704L74.555 60.3972C74.6317 60.2468 74.8159 60.1855 74.9663 60.2591C75.1167 60.3359 75.1781 60.52 75.1044 60.6704L74.9663 60.9467C74.911 61.0541 74.8036 61.1155 74.6931 61.1155H74.6901ZM10.3346 60.4494C10.221 60.4494 10.1105 60.385 10.0583 60.2775L9.92635 59.9982C9.85268 59.8448 9.92021 59.6606 10.0737 59.59C10.2271 59.5163 10.4113 59.5839 10.4819 59.7373L10.6139 60.0105C10.6876 60.164 10.6231 60.3481 10.4727 60.4218C10.4297 60.4433 10.3837 60.4525 10.3407 60.4525L10.3346 60.4494ZM75.8472 58.6047C75.8073 58.6047 75.7674 58.5986 75.7306 58.5802C75.574 58.5157 75.5004 58.3346 75.5648 58.1781L75.6815 57.8957C75.7459 57.7392 75.9239 57.6624 76.0805 57.7269C76.237 57.7914 76.3137 57.9694 76.2493 58.1259L76.1326 58.4114C76.0835 58.5311 75.97 58.6017 75.8503 58.6017L75.8472 58.6047ZM9.2296 57.9233C9.10682 57.9233 8.99019 57.8497 8.94415 57.7269L8.83365 57.4384C8.77226 57.2788 8.85207 57.1038 9.01167 57.0424C9.17128 56.981 9.34623 57.0608 9.40762 57.2205L9.51812 57.5059C9.57951 57.6624 9.50277 57.8405 9.34317 57.9049C9.30633 57.9203 9.2695 57.9264 9.23267 57.9264L9.2296 57.9233ZM76.8079 56.0111C76.7772 56.0111 76.7435 56.005 76.7128 55.9958C76.5501 55.9436 76.4641 55.7686 76.5163 55.609L76.6115 55.3174C76.6637 55.1548 76.8355 55.0658 76.9982 55.1179C77.1609 55.1701 77.2499 55.342 77.1977 55.5047L77.1026 55.7993C77.0596 55.9282 76.9399 56.0111 76.811 56.0111H76.8079ZM8.32414 55.3144C8.19215 55.3144 8.06938 55.2284 8.02948 55.0965L7.94046 54.8018C7.89135 54.6391 7.9865 54.4672 8.14611 54.4212C8.30879 54.3721 8.48067 54.4672 8.52671 54.6268L8.61573 54.9184C8.66483 55.0811 8.57275 55.253 8.41008 55.3021C8.37938 55.3113 8.35176 55.3144 8.32107 55.3144H8.32414ZM77.563 53.3561C77.5384 53.3561 77.5139 53.3561 77.4893 53.3469C77.3236 53.307 77.2223 53.1413 77.2622 52.9755L77.3328 52.6778C77.3727 52.512 77.5354 52.4108 77.7011 52.4476C77.8668 52.4875 77.9681 52.6502 77.9313 52.8159L77.8607 53.1167C77.8269 53.2579 77.7011 53.3531 77.563 53.3531V53.3561ZM7.62125 52.644C7.48006 52.644 7.35421 52.5458 7.32045 52.4046L7.25599 52.1007C7.22223 51.935 7.32659 51.7723 7.49234 51.7355C7.65808 51.7017 7.82076 51.8061 7.85759 51.9718L7.92205 52.2696C7.95888 52.4353 7.85452 52.598 7.68878 52.6348C7.66729 52.641 7.64273 52.641 7.62125 52.641V52.644ZM78.1093 50.6489C78.094 50.6489 78.0756 50.6489 78.0602 50.6459C77.8945 50.6182 77.7778 50.4617 77.8055 50.2929L77.8546 49.9921C77.8791 49.8233 78.0387 49.7097 78.2045 49.7343C78.3733 49.7588 78.4869 49.9154 78.4623 50.0842L78.4132 50.3911C78.3886 50.5415 78.2597 50.6489 78.1093 50.6489ZM7.12708 49.9276C6.97668 49.9276 6.8447 49.8171 6.82321 49.6637L6.78024 49.3567C6.75876 49.1879 6.87539 49.0345 7.04421 49.0099C7.21609 48.9884 7.36649 49.105 7.39105 49.2739L7.43402 49.5747C7.45857 49.7435 7.34194 49.8969 7.17312 49.9215C7.15777 49.9215 7.1455 49.9246 7.13015 49.9246L7.12708 49.9276ZM78.447 47.908C78.447 47.908 78.4285 47.908 78.4193 47.908C78.2505 47.8926 78.1247 47.7453 78.14 47.5765L78.1646 47.2726C78.1769 47.1038 78.3211 46.978 78.493 46.9902C78.6618 47.0025 78.7877 47.1499 78.7754 47.3187L78.7508 47.6287C78.7386 47.7883 78.6035 47.908 78.4439 47.908H78.447ZM6.8447 47.1805C6.68509 47.1805 6.55004 47.0547 6.53776 46.892L6.51935 46.5851C6.51014 46.4163 6.63905 46.272 6.80787 46.2597C6.97361 46.2505 7.12094 46.3794 7.13322 46.5483L7.15164 46.8521C7.16391 47.0209 7.035 47.1683 6.86618 47.1775C6.86005 47.1775 6.85391 47.1775 6.8447 47.1775V47.1805ZM78.5728 45.1517C78.404 45.1517 78.2659 45.0105 78.2689 44.8417V44.5378C78.2689 44.369 78.4071 44.2309 78.5759 44.2309C78.7447 44.2309 78.8828 44.369 78.8828 44.5378V44.8478C78.8828 45.0166 78.7416 45.1517 78.5759 45.1517H78.5728ZM6.77103 44.4212C6.77103 44.4212 6.77103 44.4212 6.76796 44.4212C6.59915 44.4212 6.46103 44.28 6.4641 44.1112L6.47024 43.8012C6.4733 43.6324 6.62063 43.4973 6.78331 43.5004C6.95213 43.5034 7.08718 43.6446 7.08411 43.8134L7.07797 44.1173C7.07797 44.2861 6.93985 44.4212 6.77103 44.4212ZM78.539 43.2364C78.3764 43.2364 78.2413 43.1075 78.2321 42.9448L78.2168 42.641C78.2075 42.4721 78.3365 42.3279 78.5083 42.3187C78.6741 42.3095 78.8214 42.4384 78.8306 42.6103L78.846 42.9172C78.8552 43.086 78.7232 43.2303 78.5544 43.2395C78.5482 43.2395 78.5452 43.2395 78.539 43.2395V43.2364ZM6.90916 41.6618C6.90916 41.6618 6.89074 41.6618 6.88153 41.6618C6.71272 41.6465 6.58687 41.4991 6.60222 41.3303L6.62984 41.0234C6.64519 40.8546 6.79559 40.7318 6.9644 40.7472C7.13322 40.7625 7.25599 40.9129 7.24065 41.0817L7.21302 41.3856C7.19768 41.5452 7.06569 41.6649 6.90609 41.6649L6.90916 41.6618ZM78.3119 40.4832C78.1584 40.4832 78.0265 40.3696 78.008 40.2131L77.9712 39.9092C77.9497 39.7404 78.0664 39.5869 78.2352 39.5654C78.4009 39.544 78.5575 39.6606 78.5789 39.8294L78.6188 40.1363C78.6403 40.3052 78.5206 40.4586 78.3518 40.4801C78.3395 40.4801 78.3273 40.4801 78.315 40.4801L78.3119 40.4832ZM7.25599 38.9209C7.24065 38.9209 7.22223 38.9209 7.20381 38.9178C7.03807 38.8902 6.9245 38.7306 6.95213 38.5648L7.00431 38.261C7.035 38.0952 7.19154 37.9817 7.36035 38.0123C7.5261 38.043 7.63967 38.1996 7.60897 38.3684L7.55679 38.6692C7.53224 38.8196 7.40332 38.927 7.25292 38.927L7.25599 38.9209ZM77.8761 37.7576C77.7318 37.7576 77.606 37.6563 77.5753 37.512L77.5139 37.2143C77.4801 37.0486 77.5845 36.8859 77.7502 36.8521C77.916 36.8184 78.0786 36.9227 78.1124 37.0885L78.1738 37.3923C78.2075 37.5581 78.1001 37.7208 77.9344 37.7545C77.9129 37.7576 77.8945 37.7607 77.873 37.7607L77.8761 37.7576ZM7.81155 36.2198C7.787 36.2198 7.76244 36.2198 7.73788 36.2106C7.57214 36.1707 7.47392 36.005 7.51382 35.8392L7.59056 35.5384C7.63046 35.3727 7.79927 35.2745 7.96195 35.3174C8.1277 35.3604 8.22592 35.5262 8.18294 35.6919L8.10928 35.9866C8.07552 36.1278 7.94967 36.2198 7.81155 36.2198ZM77.2284 35.075C77.0934 35.075 76.9706 34.9859 76.9338 34.8509L76.8509 34.5593C76.8049 34.3966 76.8969 34.2247 77.0596 34.1787C77.2223 34.1327 77.3942 34.2247 77.4402 34.3874L77.5261 34.6852C77.5722 34.8478 77.477 35.0166 77.3144 35.0627C77.2867 35.0719 77.2591 35.075 77.2315 35.075H77.2284ZM8.57582 33.5679C8.54513 33.5679 8.51137 33.5618 8.48067 33.5526C8.32107 33.5004 8.23205 33.3254 8.2873 33.1658L8.38552 32.8712C8.44077 32.7115 8.61573 32.6256 8.77533 32.6778C8.93494 32.733 9.02088 32.908 8.9687 33.0676L8.87048 33.3592C8.82751 33.4881 8.70781 33.571 8.57889 33.571L8.57582 33.5679ZM76.3782 32.4507C76.2524 32.4507 76.1357 32.3739 76.0897 32.2511L75.9823 31.9657C75.9209 31.8061 76.0007 31.6311 76.1603 31.5697C76.3168 31.5084 76.4948 31.5882 76.5562 31.7478L76.6637 32.0394C76.722 32.199 76.6422 32.3739 76.4826 32.4322C76.4488 32.4445 76.412 32.4507 76.3751 32.4507H76.3782ZM9.54574 30.9774C9.50584 30.9774 9.46594 30.9712 9.42604 30.9528C9.2695 30.8883 9.19584 30.7072 9.26029 30.5507L9.38307 30.2653C9.45059 30.1087 9.63169 30.0381 9.78515 30.1057C9.94169 30.1732 10.0123 30.3543 9.94476 30.5077L9.82506 30.7871C9.77595 30.9037 9.66238 30.9743 9.54267 30.9743L9.54574 30.9774ZM75.3254 29.9C75.2088 29.9 75.0983 29.8325 75.0461 29.722L74.9172 29.4457C74.8466 29.2923 74.911 29.1081 75.0645 29.0375C75.218 28.9669 75.4021 29.0314 75.4727 29.1848L75.6017 29.4642C75.6722 29.6176 75.6017 29.8018 75.4513 29.8724C75.4114 29.8908 75.3653 29.9 75.3223 29.9H75.3254ZM10.7121 28.4697C10.6661 28.4697 10.617 28.4574 10.5709 28.4359C10.4205 28.3592 10.3591 28.175 10.4389 28.0216L10.5832 27.7453C10.663 27.5949 10.8472 27.5366 10.9976 27.6164C11.148 27.6962 11.2063 27.8804 11.1265 28.0308L10.9853 28.3009C10.93 28.4083 10.8226 28.4666 10.7121 28.4666V28.4697ZM74.0823 27.4384C73.9749 27.4384 73.8705 27.3801 73.8122 27.2788L73.6649 27.0148C73.582 26.8675 73.6342 26.6802 73.7815 26.5974C73.9289 26.5145 74.1161 26.5667 74.199 26.714L74.3493 26.9841C74.4322 27.1314 74.377 27.3187 74.2296 27.4015C74.1836 27.4292 74.1314 27.4414 74.0823 27.4414V27.4384ZM12.0688 26.0602C12.0135 26.0602 11.9583 26.0449 11.9092 26.0142C11.7649 25.9252 11.7189 25.7349 11.8079 25.5906C11.8631 25.5016 11.9153 25.4157 11.9705 25.3266C12.0596 25.1824 12.2499 25.1394 12.3941 25.2315C12.5384 25.3205 12.5814 25.5108 12.4893 25.6551L12.3297 25.9129C12.2713 26.008 12.1701 26.0602 12.0688 26.0602ZM72.652 25.078C72.5507 25.078 72.4555 25.0289 72.3942 24.9399C72.3389 24.857 72.2837 24.7711 72.2253 24.6882C72.1302 24.547 72.167 24.3567 72.3082 24.2616C72.4494 24.1664 72.6397 24.2033 72.7349 24.3444C72.7932 24.4304 72.8484 24.5163 72.9067 24.6023C72.9988 24.7435 72.962 24.9338 72.8177 25.0289C72.7656 25.0627 72.7072 25.078 72.6489 25.078H72.652ZM13.6065 23.7643C13.5451 23.7643 13.4807 23.7459 13.4254 23.706C13.2873 23.6078 13.2566 23.4144 13.3579 23.2763L13.539 23.0277C13.6403 22.8926 13.8306 22.8619 13.9687 22.9632C14.1038 23.0645 14.1345 23.2548 14.0332 23.3929L13.8521 23.6385C13.7907 23.7214 13.6986 23.7643 13.6035 23.7643H13.6065ZM71.0436 22.8374C70.9516 22.8374 70.8625 22.7975 70.8012 22.7177L70.6139 22.4783C70.5096 22.3463 70.5311 22.1529 70.6661 22.0486C70.7981 21.9442 70.9915 21.9657 71.0958 22.1007L71.2861 22.3432C71.3905 22.4783 71.3659 22.6686 71.2339 22.7729C71.1787 22.8159 71.1112 22.8374 71.0467 22.8374H71.0436ZM15.3131 21.5943C15.2425 21.5943 15.1719 21.5697 15.1136 21.5206C14.9847 21.4101 14.9693 21.2168 15.0798 21.0879C15.1473 21.008 15.2149 20.9313 15.2824 20.8515C15.3929 20.7226 15.5863 20.7103 15.7152 20.8208C15.8441 20.9313 15.8564 21.1247 15.7459 21.2536C15.6783 21.3303 15.6139 21.4071 15.5494 21.4838C15.488 21.5544 15.4021 21.5912 15.3162 21.5912L15.3131 21.5943ZM69.2665 20.7226C69.1836 20.7226 69.1007 20.6888 69.0393 20.6213L68.8337 20.3972C68.7201 20.2714 68.7263 20.078 68.8521 19.9645C68.978 19.8509 69.1713 19.857 69.2849 19.9829L69.4936 20.21C69.6072 20.3359 69.598 20.5292 69.4721 20.6428C69.4138 20.695 69.3401 20.7226 69.2665 20.7226ZM17.1793 19.5593C17.1025 19.5593 17.0227 19.5286 16.9644 19.4703C16.8447 19.3506 16.8447 19.1572 16.9644 19.0375C17.0381 18.9638 17.1087 18.8902 17.1823 18.8196C17.302 18.6999 17.4985 18.703 17.6151 18.8196C17.7348 18.9393 17.7318 19.1357 17.6151 19.2524C17.5415 19.323 17.4709 19.3966 17.4003 19.4672C17.3389 19.5286 17.2621 19.5593 17.1823 19.5593H17.1793ZM67.3328 18.749C67.256 18.749 67.1824 18.7214 67.121 18.6661L66.9 18.4574C66.7772 18.3408 66.768 18.1474 66.8846 18.0246C67.0013 17.8988 67.1947 17.8926 67.3174 18.0093L67.5446 18.2211C67.6673 18.3377 67.6735 18.5311 67.5568 18.6538C67.4954 18.7183 67.4156 18.749 67.3328 18.749ZM19.1958 17.6747C19.1099 17.6747 19.024 17.6379 18.9626 17.5673C18.8521 17.4384 18.8644 17.245 18.9933 17.1345L19.2296 16.9319C19.3585 16.8214 19.5519 16.8368 19.6624 16.9657C19.7729 17.0946 19.7575 17.288 19.6286 17.3985L19.3984 17.5949C19.3401 17.644 19.2695 17.6686 19.1989 17.6686L19.1958 17.6747ZM65.2517 16.9319C65.1842 16.9319 65.1167 16.9104 65.0584 16.8644L64.822 16.6741C64.69 16.5697 64.6686 16.3764 64.7729 16.2413C64.8773 16.1093 65.0706 16.0878 65.2057 16.1922L65.4482 16.3856C65.5802 16.493 65.6016 16.6864 65.4942 16.8184C65.4328 16.892 65.3438 16.9319 65.2548 16.9319H65.2517ZM21.3505 15.9528C21.2554 15.9528 21.1633 15.9098 21.1019 15.827C21.0006 15.6919 21.0313 15.4985 21.1664 15.3972L21.415 15.2131C21.5531 15.1149 21.7434 15.1456 21.8447 15.2806C21.9429 15.4187 21.9122 15.609 21.7772 15.7103L21.5316 15.8883C21.4764 15.9282 21.4119 15.9497 21.3505 15.9497V15.9528ZM63.0418 15.2775C62.9804 15.2775 62.9221 15.2591 62.8668 15.2223L62.6152 15.0504C62.474 14.9553 62.4371 14.765 62.5323 14.6238C62.6274 14.4826 62.8177 14.4457 62.9589 14.5409L63.2137 14.7158C63.3518 14.811 63.3886 15.0044 63.2904 15.1425C63.2321 15.2284 63.1339 15.2745 63.0387 15.2745L63.0418 15.2775ZM23.6311 14.3997C23.5298 14.3997 23.4285 14.3475 23.3702 14.2554C23.2812 14.1112 23.3241 13.9239 23.4684 13.8319L23.7293 13.6692C23.8736 13.5802 24.0639 13.6262 24.1529 13.7705C24.2419 13.9147 24.1958 14.105 24.0516 14.194L23.7938 14.3537C23.7416 14.3843 23.6863 14.3997 23.6311 14.3997ZM60.7091 13.7981C60.6569 13.7981 60.6047 13.7858 60.5556 13.7551L60.2916 13.6017C60.1443 13.5188 60.0921 13.3316 60.1781 13.1842C60.2609 13.0369 60.4482 12.9847 60.5955 13.0707L60.8656 13.2241C61.0129 13.3101 61.062 13.4973 60.9761 13.6446C60.9178 13.7429 60.8165 13.7981 60.7091 13.7981ZM26.0221 13.0277C25.9116 13.0277 25.8042 12.9694 25.7489 12.8619C25.6691 12.7115 25.7275 12.5274 25.8779 12.4476L26.151 12.3064C26.3014 12.2297 26.4856 12.288 26.5654 12.4384C26.6421 12.5888 26.5838 12.7729 26.4334 12.8527L26.1633 12.9909C26.1173 13.0154 26.0682 13.0246 26.0221 13.0246V13.0277ZM58.2689 12.5028C58.2229 12.5028 58.1799 12.4936 58.1369 12.4721L57.8607 12.3402C57.7072 12.2665 57.6428 12.0854 57.7134 11.9319C57.787 11.7785 57.9681 11.714 58.1216 11.7846L58.4009 11.9196C58.5544 11.9933 58.6188 12.1775 58.5421 12.3309C58.4899 12.4414 58.3794 12.5059 58.2659 12.5059L58.2689 12.5028ZM28.5114 11.8429C28.3917 11.8429 28.2781 11.7723 28.229 11.6557C28.1615 11.4991 28.2351 11.3181 28.3886 11.2536L28.671 11.1339C28.8275 11.0694 29.0086 11.14 29.0731 11.2966C29.1375 11.4531 29.0639 11.6342 28.9104 11.6987L28.6311 11.8184C28.5912 11.8368 28.5513 11.8429 28.5114 11.8429ZM55.7336 11.3948C55.6968 11.3948 55.66 11.3886 55.6231 11.3733L55.3377 11.2628C55.1781 11.2014 55.1013 11.0265 55.1597 10.8669C55.221 10.7072 55.396 10.6274 55.5556 10.6888L55.8441 10.7993C56.0007 10.8607 56.0805 11.0387 56.0191 11.1983C55.973 11.3181 55.8564 11.3948 55.7336 11.3948ZM31.0835 10.8515C30.9546 10.8515 30.838 10.7717 30.7919 10.6428C30.7367 10.4832 30.8226 10.3082 30.9822 10.253L31.2769 10.1548C31.4365 10.1026 31.6114 10.1885 31.6636 10.3481C31.7158 10.5077 31.6299 10.6827 31.4703 10.7349L31.1817 10.8331C31.148 10.8454 31.1142 10.8484 31.0835 10.8484V10.8515ZM53.1216 10.4863C53.0909 10.4863 53.0633 10.4832 53.0326 10.474L52.741 10.388C52.5783 10.3389 52.4862 10.1701 52.5323 10.0074C52.5814 9.84475 52.7471 9.75267 52.9129 9.79871L53.2106 9.88773C53.3733 9.93683 53.4654 10.1087 53.4162 10.2714C53.3763 10.4034 53.2536 10.4893 53.1216 10.4893V10.4863ZM33.7293 10.0627C33.5912 10.0627 33.4684 9.9706 33.4316 9.83248C33.3886 9.6698 33.4899 9.50098 33.6526 9.45801L33.9534 9.38128C34.1191 9.34138 34.2849 9.44267 34.3248 9.60534C34.3647 9.77109 34.2634 9.93683 34.1007 9.97674L33.806 10.0504C33.7815 10.0565 33.7539 10.0596 33.7293 10.0596V10.0627ZM50.4512 9.78644C50.4297 9.78644 50.4083 9.78644 50.3837 9.7803L50.086 9.71584C49.9202 9.68208 49.8128 9.51633 49.8496 9.35059C49.8865 9.18484 50.0492 9.07741 50.2149 9.11424L50.5188 9.1787C50.6845 9.21553 50.7889 9.37821 50.752 9.54396C50.7213 9.68822 50.5924 9.78337 50.4512 9.78337V9.78644ZM36.4304 9.4795C36.283 9.4795 36.1541 9.37514 36.1296 9.22474C36.1019 9.059 36.2124 8.89939 36.3782 8.86869L36.682 8.81652C36.8478 8.78889 37.0074 8.90246 37.035 9.0682C37.0626 9.23395 36.9491 9.39356 36.7833 9.42118L36.4825 9.47336C36.4641 9.47643 36.4457 9.4795 36.4304 9.4795ZM47.7348 9.29534C47.7348 9.29534 47.7072 9.29534 47.6919 9.29534L47.3911 9.25544C47.2223 9.23395 47.1056 9.07741 47.1271 8.91167C47.1486 8.74285 47.3051 8.62621 47.4709 8.6477L47.7778 8.69067C47.9466 8.71523 48.0633 8.86869 48.0387 9.03751C48.0172 9.19098 47.8852 9.30148 47.7348 9.30148V9.29534ZM39.1652 9.10811C39.0086 9.10811 38.8766 8.9884 38.8613 8.83186C38.8459 8.66305 38.9687 8.51265 39.1375 8.4973L39.4445 8.46968C39.6164 8.45433 39.7637 8.58017 39.776 8.74899C39.7913 8.9178 39.6655 9.0682 39.4967 9.08048L39.1928 9.10811C39.1928 9.10811 39.1713 9.10811 39.1621 9.10811H39.1652ZM44.9878 9.01296C44.9878 9.01296 44.9755 9.01296 44.9693 9.01296L44.6655 8.99454C44.4967 8.98533 44.3677 8.84107 44.377 8.67225C44.3862 8.50344 44.5304 8.37453 44.6992 8.38373L45.0092 8.40215C45.1781 8.41443 45.307 8.55869 45.2947 8.7275C45.2855 8.89018 45.1504 9.01602 44.9878 9.01602V9.01296ZM41.9215 8.94543C41.7557 8.94543 41.6176 8.81345 41.6145 8.64463C41.6115 8.47582 41.7465 8.33462 41.9153 8.33156L42.2253 8.32542C42.3972 8.32542 42.5323 8.46047 42.5353 8.62928C42.5353 8.7981 42.4003 8.93929 42.2315 8.93929L41.9276 8.94543C41.9276 8.94543 41.9245 8.94543 41.9215 8.94543Z" fill="#0038FF"/>
</g>
<defs>
<clipPath id="clip0_14245_5942">
<rect width="109.481" height="140" fill="white" transform="translate(0 0.0902786)"/>
</clipPath>
</defs>
</svg>
