<svg width="142" height="20" viewBox="0 0 142 20" fill="none" xmlns="http://www.w3.org/2000/svg">
<g clip-path="url(#clip0_1_28611)">
<path d="M124.77 2.54538C124.77 1.20379 125.203 0.741167 125.924 0.741167C126.645 0.741167 127.222 1.01874 127.896 2.54538L131.982 11.4739V17.1179C131.982 18.4595 131.405 18.8296 129.819 19.0146V19.3847H137.367V19.0146C135.733 18.8296 135.204 18.4132 135.204 17.1179V11.4739L139.146 2.86921C139.916 1.20379 140.685 0.833691 141.839 0.648643V0.278548H136.31V0.648643C138.185 0.833691 138.858 1.34257 138.329 2.54538L134.867 10.1786L131.309 2.36033C130.828 1.29631 131.117 0.972477 133.184 0.694905V0.32481H121.308V0.694905C123.184 0.972477 123.761 1.29631 123.761 2.59164V13.0468L115.058 0.32481H110.779V0.694905C112.173 0.879953 112.606 1.29631 112.606 2.59164V17.1641C112.606 18.5057 112.221 18.9684 111.74 18.9684C111.308 18.9684 111.067 18.7833 110.442 17.1641L103.999 0.232286H103.615L97.4121 16.424C96.739 18.2282 95.6812 18.8296 94.6235 19.0609V19.431H100.297V19.0609C98.3257 18.8758 97.7006 18.1356 98.1334 16.9328L99.5277 13.2319H105.394L106.74 16.7015C107.317 18.2744 106.98 18.737 105.297 19.0146V19.3847H116.068V19.0146C114.192 18.737 113.615 18.4132 113.615 17.1179V4.07202L124.145 19.431H124.77V2.54538ZM48.8503 9.8085C48.8503 3.88698 51.7833 0.787429 55.197 0.787429C57.2164 0.787429 58.5146 1.20379 59.2839 1.99024C59.8609 2.54538 60.2936 3.33183 60.7744 4.5809H61.1591V0.602381C59.1877 0.232286 57.4087 0.000976562 55.6297 0.000976562C50.4851 0.000976562 45.1481 3.19305 45.1481 9.8085C45.1481 16.424 50.4851 19.616 55.2932 19.616C57.4087 19.616 59.2839 19.2922 61.0629 18.7833L61.6399 15.0361L61.3033 14.9436C60.8706 15.73 60.3417 16.424 59.7647 17.0254C58.5146 18.2282 56.8318 18.8758 55.1489 18.8758C51.8794 18.8296 48.8503 15.8225 48.8503 9.8085ZM91.4982 10.3636C91.0655 10.3636 90.4885 10.3174 89.9115 10.2249V0.972477H91.4982C94.1426 0.972477 95.2966 2.31407 95.2966 5.64493C95.2966 9.02205 94.0946 10.3636 91.4982 10.3636ZM29.7141 0.278548V4.85848H30.0987C30.6757 1.94398 31.8777 1.01874 33.8971 1.01874H34.8587V17.1179C34.8587 18.4595 34.2818 18.8296 32.6951 19.0146V19.3847H40.2438V19.0146C38.6091 18.8296 38.0802 18.4132 38.0802 17.1179V0.972477H39.0418C41.0612 0.972477 42.2632 1.89771 42.8402 4.81221H43.2248V0.232286H29.7141V0.278548ZM23.7039 19.616C26.9735 19.616 30.4353 17.8118 30.4353 14.1109C30.4353 11.9365 29.2333 10.1323 27.1177 9.02205L23.3674 7.03279C21.3961 5.96876 20.8191 4.99726 20.8191 3.60941C20.8191 2.0365 22.0211 0.787429 24.2809 0.787429C25.3868 0.787429 26.2042 1.065 26.8773 1.66641C27.4543 2.22155 28.0312 3.14679 28.5601 4.81221H28.8967V0.602381C27.5504 0.232286 26.1561 0.000976562 24.5213 0.000976562C21.2999 0.000976562 18.8958 1.94398 18.8958 5.22857C18.8958 7.31036 20.0979 9.2071 22.0692 10.3174L25.531 12.1679C27.5023 13.2319 28.1274 14.2496 28.1274 15.7763C28.1274 17.5805 26.2042 18.8758 24.0886 18.8758C22.6942 18.8758 21.5403 18.4132 20.7229 17.6268C20.194 17.1179 19.6171 16.3314 19.2324 15.3137H21.4922V14.9436C20.8672 14.8048 20.4825 14.7123 19.9536 13.5095L15.5302 3.3781H15.1455L10.8182 13.2781C10.2413 14.6197 9.85661 14.851 9.18347 14.9436V15.3137H13.03V14.9436C11.6356 14.8048 11.251 14.1571 11.5875 13.3244L12.2607 11.7515H16.1552L17.0207 13.6945C17.4053 14.5735 16.8284 14.8048 15.434 14.8973V15.2674H18.5112V18.9221C20.0498 19.3385 22.0211 19.616 23.7039 19.616ZM72.5543 19.431L78.2759 4.11829L78.7086 17.1641C78.7567 18.4595 78.2278 18.8296 76.5931 19.0146V19.3847H92.3636V19.0146C90.4885 18.737 89.9115 18.4132 89.9115 17.1179V10.965C90.5366 11.0576 91.1616 11.1038 91.6424 11.1038C95.4408 11.1038 98.7103 9.76224 98.7103 5.69119C98.7103 1.62014 95.4408 0.278548 91.6424 0.278548H84.863V0.648643C86.2573 0.833691 86.6901 1.25005 86.6901 2.54538V17.1179C86.6901 18.4595 86.1131 19.0146 84.5264 19.0146H84.4783C82.7955 19.0146 82.0743 18.4132 82.0262 17.1641L81.4492 2.59164C81.4012 1.25005 81.882 0.833691 83.3725 0.648643V0.278548H78.7086L73.612 14.0183L68.5154 0.278548H63.515V0.648643C65.0055 0.833691 65.4864 1.29631 65.4383 2.59164L64.9094 16.5627C64.8613 17.9506 64.092 18.7833 62.6976 19.0146V19.3847H67.9866V19.0146C66.6403 18.8296 65.871 17.9969 65.9191 16.5627L66.3518 3.84071L72.1696 19.3847L72.5543 19.431ZM57.2164 15.4062C59.7647 15.4062 63.0342 13.2319 63.0342 9.8085C63.0342 6.43138 59.8128 4.21081 57.2164 4.21081C54.6681 4.21081 51.3986 6.38512 51.3986 9.8085C51.3986 13.1856 54.62 15.4062 57.2164 15.4062ZM57.2164 4.99726C58.8512 4.99726 59.957 6.2926 59.957 9.8085C59.957 13.3707 58.8031 14.6197 57.2164 14.6197C55.5817 14.6197 54.4758 13.3244 54.4758 9.8085C54.4758 6.24633 55.5817 4.99726 57.2164 4.99726ZM105.153 12.4454H99.8162L102.461 5.41362L105.153 12.4454ZM15.9148 11.0113H12.6453L14.2801 7.17157L15.9148 11.0113ZM9.66428 11.9828H10.0489V6.24633H9.66428C9.03923 8.28186 8.41418 8.74448 7.26023 8.74448H5.04851V0.972477H8.55842C10.5778 0.972477 11.7799 1.89771 12.3568 4.81221H12.7415V0.232286H0V0.602381C1.39435 0.787429 1.82708 1.20379 1.82708 2.49912V17.0716C1.82708 18.4132 1.39435 18.7833 0 18.9684V19.3385H7.50064V18.9684C5.62548 18.6908 5.04851 18.367 5.04851 17.0716V9.43841H7.26023C8.3661 9.48467 9.03923 9.94729 9.66428 11.9828Z" fill="#516880"/>
<path d="M124.77 2.54538C124.77 1.20379 125.203 0.741167 125.924 0.741167C126.645 0.741167 127.222 1.01874 127.896 2.54538L131.982 11.4739V17.1179C131.982 18.4595 131.405 18.8296 129.819 19.0146V19.3847H137.367V19.0146C135.733 18.8296 135.204 18.4132 135.204 17.1179V11.4739L139.146 2.86921C139.916 1.20379 140.685 0.833691 141.839 0.648643V0.278548H136.31V0.648643C138.185 0.833691 138.858 1.34257 138.329 2.54538L134.867 10.1786L131.309 2.36033C130.828 1.29631 131.117 0.972477 133.184 0.694905V0.32481H121.308V0.694905C123.184 0.972477 123.761 1.29631 123.761 2.59164V13.0468L115.058 0.32481H110.779V0.694905C112.173 0.879953 112.606 1.29631 112.606 2.59164V17.1641C112.606 18.5057 112.221 18.9684 111.74 18.9684C111.308 18.9684 111.067 18.7833 110.442 17.1641L103.999 0.232286H103.615L97.4121 16.424C96.739 18.2282 95.6812 18.8296 94.6235 19.0609V19.431H100.297V19.0609C98.3257 18.8758 97.7006 18.1356 98.1334 16.9328L99.5277 13.2319H105.394L106.74 16.7015C107.317 18.2744 106.98 18.737 105.297 19.0146V19.3847H116.068V19.0146C114.192 18.737 113.615 18.4132 113.615 17.1179V4.07202L124.145 19.431H124.77V2.54538ZM48.8503 9.8085C48.8503 3.88698 51.7833 0.787429 55.197 0.787429C57.2164 0.787429 58.5146 1.20379 59.2839 1.99024C59.8609 2.54538 60.2936 3.33183 60.7744 4.5809H61.1591V0.602381C59.1877 0.232286 57.4087 0.000976562 55.6297 0.000976562C50.4851 0.000976562 45.1481 3.19305 45.1481 9.8085C45.1481 16.424 50.4851 19.616 55.2932 19.616C57.4087 19.616 59.2839 19.2922 61.0629 18.7833L61.6399 15.0361L61.3033 14.9436C60.8706 15.73 60.3417 16.424 59.7647 17.0254C58.5146 18.2282 56.8318 18.8758 55.1489 18.8758C51.8794 18.8296 48.8503 15.8225 48.8503 9.8085ZM91.4982 10.3636C91.0655 10.3636 90.4885 10.3174 89.9115 10.2249V0.972477H91.4982C94.1426 0.972477 95.2966 2.31407 95.2966 5.64493C95.2966 9.02205 94.0946 10.3636 91.4982 10.3636ZM29.7141 0.278548V4.85848H30.0987C30.6757 1.94398 31.8777 1.01874 33.8971 1.01874H34.8587V17.1179C34.8587 18.4595 34.2818 18.8296 32.6951 19.0146V19.3847H40.2438V19.0146C38.6091 18.8296 38.0802 18.4132 38.0802 17.1179V0.972477H39.0418C41.0612 0.972477 42.2632 1.89771 42.8402 4.81221H43.2248V0.232286H29.7141V0.278548ZM23.7039 19.616C26.9735 19.616 30.4353 17.8118 30.4353 14.1109C30.4353 11.9365 29.2333 10.1323 27.1177 9.02205L23.3674 7.03279C21.3961 5.96876 20.8191 4.99726 20.8191 3.60941C20.8191 2.0365 22.0211 0.787429 24.2809 0.787429C25.3868 0.787429 26.2042 1.065 26.8773 1.66641C27.4543 2.22155 28.0312 3.14679 28.5601 4.81221H28.8967V0.602381C27.5504 0.232286 26.1561 0.000976562 24.5213 0.000976562C21.2999 0.000976562 18.8958 1.94398 18.8958 5.22857C18.8958 7.31036 20.0979 9.2071 22.0692 10.3174L25.531 12.1679C27.5023 13.2319 28.1274 14.2496 28.1274 15.7763C28.1274 17.5805 26.2042 18.8758 24.0886 18.8758C22.6942 18.8758 21.5403 18.4132 20.7229 17.6268C20.194 17.1179 19.6171 16.3314 19.2324 15.3137H21.4922V14.9436C20.8672 14.8048 20.4825 14.7123 19.9536 13.5095L15.5302 3.3781H15.1455L10.8182 13.2781C10.2413 14.6197 9.85661 14.851 9.18347 14.9436V15.3137H13.03V14.9436C11.6356 14.8048 11.251 14.1571 11.5875 13.3244L12.2607 11.7515H16.1552L17.0207 13.6945C17.4053 14.5735 16.8284 14.8048 15.434 14.8973V15.2674H18.5112V18.9221C20.0498 19.3385 22.0211 19.616 23.7039 19.616ZM72.5543 19.431L78.2759 4.11829L78.7086 17.1641C78.7567 18.4595 78.2278 18.8296 76.5931 19.0146V19.3847H92.3636V19.0146C90.4885 18.737 89.9115 18.4132 89.9115 17.1179V10.965C90.5366 11.0576 91.1616 11.1038 91.6424 11.1038C95.4408 11.1038 98.7103 9.76224 98.7103 5.69119C98.7103 1.62014 95.4408 0.278548 91.6424 0.278548H84.863V0.648643C86.2573 0.833691 86.6901 1.25005 86.6901 2.54538V17.1179C86.6901 18.4595 86.1131 19.0146 84.5264 19.0146H84.4783C82.7955 19.0146 82.0743 18.4132 82.0262 17.1641L81.4492 2.59164C81.4012 1.25005 81.882 0.833691 83.3725 0.648643V0.278548H78.7086L73.612 14.0183L68.5154 0.278548H63.515V0.648643C65.0055 0.833691 65.4864 1.29631 65.4383 2.59164L64.9094 16.5627C64.8613 17.9506 64.092 18.7833 62.6976 19.0146V19.3847H67.9866V19.0146C66.6403 18.8296 65.871 17.9969 65.9191 16.5627L66.3518 3.84071L72.1696 19.3847L72.5543 19.431ZM57.2164 15.4062C59.7647 15.4062 63.0342 13.2319 63.0342 9.8085C63.0342 6.43138 59.8128 4.21081 57.2164 4.21081C54.6681 4.21081 51.3986 6.38512 51.3986 9.8085C51.3986 13.1856 54.62 15.4062 57.2164 15.4062ZM57.2164 4.99726C58.8512 4.99726 59.957 6.2926 59.957 9.8085C59.957 13.3707 58.8031 14.6197 57.2164 14.6197C55.5817 14.6197 54.4758 13.3244 54.4758 9.8085C54.4758 6.24633 55.5817 4.99726 57.2164 4.99726ZM105.153 12.4454H99.8162L102.461 5.41362L105.153 12.4454ZM15.9148 11.0113H12.6453L14.2801 7.17157L15.9148 11.0113ZM9.66428 11.9828H10.0489V6.24633H9.66428C9.03923 8.28186 8.41418 8.74448 7.26023 8.74448H5.04851V0.972477H8.55842C10.5778 0.972477 11.7799 1.89771 12.3568 4.81221H12.7415V0.232286H0V0.602381C1.39435 0.787429 1.82708 1.20379 1.82708 2.49912V17.0716C1.82708 18.4132 1.39435 18.7833 0 18.9684V19.3385H7.50064V18.9684C5.62548 18.6908 5.04851 18.367 5.04851 17.0716V9.43841H7.26023C8.3661 9.48467 9.03923 9.94729 9.66428 11.9828Z" fill="white" fill-opacity="0.5"/>
</g>
<defs>
<clipPath id="clip0_1_28611">
<rect width="141.839" height="19.43" fill="white"/>
</clipPath>
</defs>
</svg>
