<svg width="81" height="20" viewBox="0 0 81 20" fill="none" xmlns="http://www.w3.org/2000/svg">
<g clip-path="url(#clip0_1_28596)">
<path d="M49.2297 5.43081C47.9541 5.43081 46.9521 5.7064 45.9496 6.25652C45.9496 3.31989 45.9496 0.658854 46.0412 -0.258545L39.9351 0.842228V1.39288L40.573 1.48457C41.3923 1.66794 41.667 2.12637 41.8475 3.22821C42.0312 5.43081 41.9391 17.1779 41.8475 19.1054C43.4878 19.4727 45.2197 19.7483 46.9516 19.7483C51.7814 19.7483 54.6974 16.7194 54.6974 11.9469C54.6974 8.1846 52.3282 5.43081 49.2297 5.43081ZM47.1336 18.7381C46.769 18.7381 46.3127 18.7381 46.0401 18.647C45.9485 17.3623 45.858 11.9469 45.9485 7.17498C46.4953 6.99108 46.8595 6.89939 47.3157 6.89939C49.3218 6.89939 50.4153 9.28537 50.4153 12.2215C50.4148 15.8937 49.0476 18.7381 47.1336 18.7381ZM16.9698 0.108203H0.930969V0.933915L1.84242 1.0256C3.02647 1.20898 3.48273 1.943 3.66428 3.68664C3.93846 6.99055 3.84689 12.9566 3.66428 15.8004C3.4822 17.5446 3.027 18.3709 1.84242 18.4615L0.930969 18.6459V19.3799H11.2285V18.6459L10.135 18.4615C8.95041 18.3703 8.49468 17.5446 8.3126 15.8004C8.22103 14.6069 8.12999 12.6794 8.12999 10.2939L10.3171 10.3856C11.6842 10.3856 12.3215 11.4869 12.5952 13.0467H13.4156V6.53264H12.5952C12.321 8.09291 11.6842 9.19368 10.3171 9.19368L8.13052 9.2859C8.13052 6.16537 8.22156 3.22874 8.31312 1.4851H11.5022C13.9634 1.4851 15.239 3.04483 16.15 5.79862L17.0614 5.52303L16.9698 0.108203Z" fill="#516880"/>
<path d="M49.2297 5.43081C47.9541 5.43081 46.9521 5.7064 45.9496 6.25652C45.9496 3.31989 45.9496 0.658854 46.0412 -0.258545L39.9351 0.842228V1.39288L40.573 1.48457C41.3923 1.66794 41.667 2.12637 41.8475 3.22821C42.0312 5.43081 41.9391 17.1779 41.8475 19.1054C43.4878 19.4727 45.2197 19.7483 46.9516 19.7483C51.7814 19.7483 54.6974 16.7194 54.6974 11.9469C54.6974 8.1846 52.3282 5.43081 49.2297 5.43081ZM47.1336 18.7381C46.769 18.7381 46.3127 18.7381 46.0401 18.647C45.9485 17.3623 45.858 11.9469 45.9485 7.17498C46.4953 6.99108 46.8595 6.89939 47.3157 6.89939C49.3218 6.89939 50.4153 9.28537 50.4153 12.2215C50.4148 15.8937 49.0476 18.7381 47.1336 18.7381ZM16.9698 0.108203H0.930969V0.933915L1.84242 1.0256C3.02647 1.20898 3.48273 1.943 3.66428 3.68664C3.93846 6.99055 3.84689 12.9566 3.66428 15.8004C3.4822 17.5446 3.027 18.3709 1.84242 18.4615L0.930969 18.6459V19.3799H11.2285V18.6459L10.135 18.4615C8.95041 18.3703 8.49468 17.5446 8.3126 15.8004C8.22103 14.6069 8.12999 12.6794 8.12999 10.2939L10.3171 10.3856C11.6842 10.3856 12.3215 11.4869 12.5952 13.0467H13.4156V6.53264H12.5952C12.321 8.09291 11.6842 9.19368 10.3171 9.19368L8.13052 9.2859C8.13052 6.16537 8.22156 3.22874 8.31312 1.4851H11.5022C13.9634 1.4851 15.239 3.04483 16.15 5.79862L17.0614 5.52303L16.9698 0.108203Z" fill="white" fill-opacity="0.5"/>
<path d="M22.1688 5.24687C26.7256 5.24687 29.0037 8.36741 29.0037 12.497C29.0037 16.4433 26.4519 19.7482 21.8952 19.7482C17.339 19.7482 15.0609 16.6272 15.0609 12.497C15.0609 8.55078 17.6121 5.24687 22.1688 5.24687ZM21.8952 6.1648C19.8902 6.1648 19.3434 8.91806 19.3434 12.497C19.3434 15.9843 20.2549 18.8292 22.0778 18.8292C24.1722 18.8292 24.7201 16.076 24.7201 12.497C24.7201 9.00975 23.8097 6.1648 21.8952 6.1648ZM55.8858 12.5892C55.8858 8.82637 58.255 5.24687 62.9028 5.24687C66.7291 5.24687 68.5525 8.09235 68.5525 11.8547H60.0774C59.9858 15.2503 61.6261 17.7285 64.9072 17.7285C66.3655 17.7285 67.0943 17.3623 68.0063 16.7194L68.3699 17.1778C67.4585 18.4625 65.454 19.7482 62.9028 19.7482C58.8018 19.7477 55.8858 16.8111 55.8858 12.5892ZM60.0774 10.8456L64.3605 10.7534C64.3605 8.91806 64.0868 6.1648 62.5381 6.1648C60.9894 6.1648 60.1679 8.73415 60.0774 10.8456ZM79.3984 5.98143C78.3049 5.52194 76.8472 5.24687 75.2069 5.24687C71.8358 5.24687 69.7387 7.26558 69.7387 9.65208C69.7387 12.0386 71.2864 13.0477 73.4761 13.7822C75.7537 14.6074 76.392 15.2503 76.392 16.3516C76.392 17.4529 75.5716 18.462 74.1134 18.462C72.3825 18.462 71.1059 17.4529 70.1039 14.6991L69.4656 14.8835L69.5571 18.9215C70.6507 19.3799 72.6551 19.7477 74.387 19.7477C77.9413 19.7477 80.2199 17.9113 80.2199 15.0669C80.2199 13.1394 79.2169 12.0386 76.8477 11.1201C74.2954 10.111 73.385 9.46871 73.385 8.27519C73.385 7.0822 74.2065 6.25596 75.3 6.25596C76.9393 6.25596 78.0328 7.26558 78.8543 9.74377L79.4916 9.5604L79.3984 5.98143ZM40.85 5.61415C39.3012 4.69728 36.5669 5.15519 35.1092 8.45962L35.1997 5.2474L29.0947 6.44039V6.99104L29.7325 7.08273C30.5535 7.17495 30.9171 7.63338 31.0087 8.8269C31.1908 11.0295 31.0997 14.8846 31.0087 16.8116C30.9171 17.9118 30.5535 18.4625 29.7325 18.5547L29.0947 18.6469V19.381H37.5694V18.6469L36.4758 18.5547C35.5649 18.4625 35.2913 17.9118 35.1997 16.8116C35.0176 15.0674 35.0176 11.5802 35.1092 9.37755C35.5644 8.73468 37.5694 8.18456 39.3918 9.37755L40.85 5.61415Z" fill="#516880"/>
<path d="M22.1688 5.24687C26.7256 5.24687 29.0037 8.36741 29.0037 12.497C29.0037 16.4433 26.4519 19.7482 21.8952 19.7482C17.339 19.7482 15.0609 16.6272 15.0609 12.497C15.0609 8.55078 17.6121 5.24687 22.1688 5.24687ZM21.8952 6.1648C19.8902 6.1648 19.3434 8.91806 19.3434 12.497C19.3434 15.9843 20.2549 18.8292 22.0778 18.8292C24.1722 18.8292 24.7201 16.076 24.7201 12.497C24.7201 9.00975 23.8097 6.1648 21.8952 6.1648ZM55.8858 12.5892C55.8858 8.82637 58.255 5.24687 62.9028 5.24687C66.7291 5.24687 68.5525 8.09235 68.5525 11.8547H60.0774C59.9858 15.2503 61.6261 17.7285 64.9072 17.7285C66.3655 17.7285 67.0943 17.3623 68.0063 16.7194L68.3699 17.1778C67.4585 18.4625 65.454 19.7482 62.9028 19.7482C58.8018 19.7477 55.8858 16.8111 55.8858 12.5892ZM60.0774 10.8456L64.3605 10.7534C64.3605 8.91806 64.0868 6.1648 62.5381 6.1648C60.9894 6.1648 60.1679 8.73415 60.0774 10.8456ZM79.3984 5.98143C78.3049 5.52194 76.8472 5.24687 75.2069 5.24687C71.8358 5.24687 69.7387 7.26558 69.7387 9.65208C69.7387 12.0386 71.2864 13.0477 73.4761 13.7822C75.7537 14.6074 76.392 15.2503 76.392 16.3516C76.392 17.4529 75.5716 18.462 74.1134 18.462C72.3825 18.462 71.1059 17.4529 70.1039 14.6991L69.4656 14.8835L69.5571 18.9215C70.6507 19.3799 72.6551 19.7477 74.387 19.7477C77.9413 19.7477 80.2199 17.9113 80.2199 15.0669C80.2199 13.1394 79.2169 12.0386 76.8477 11.1201C74.2954 10.111 73.385 9.46871 73.385 8.27519C73.385 7.0822 74.2065 6.25596 75.3 6.25596C76.9393 6.25596 78.0328 7.26558 78.8543 9.74377L79.4916 9.5604L79.3984 5.98143ZM40.85 5.61415C39.3012 4.69728 36.5669 5.15519 35.1092 8.45962L35.1997 5.2474L29.0947 6.44039V6.99104L29.7325 7.08273C30.5535 7.17495 30.9171 7.63338 31.0087 8.8269C31.1908 11.0295 31.0997 14.8846 31.0087 16.8116C30.9171 17.9118 30.5535 18.4625 29.7325 18.5547L29.0947 18.6469V19.381H37.5694V18.6469L36.4758 18.5547C35.5649 18.4625 35.2913 17.9118 35.1997 16.8116C35.0176 15.0674 35.0176 11.5802 35.1092 9.37755C35.5644 8.73468 37.5694 8.18456 39.3918 9.37755L40.85 5.61415Z" fill="white" fill-opacity="0.5"/>
</g>
<defs>
<clipPath id="clip0_1_28596">
<rect width="80.3695" height="19.43" fill="white"/>
</clipPath>
</defs>
</svg>
