<svg width="84" height="19" viewBox="0 0 84 19" fill="none" xmlns="http://www.w3.org/2000/svg">
<g clip-path="url(#clip0_1_28599)">
<path d="M15.6891 0.000772285C14.0915 0.00744571 12.5023 0.850764 11.709 2.53024L11.3426 3.30546V9.71101V16.1166L11.709 16.8918C12.2777 18.0959 13.158 18.856 14.4773 19.2757C15.4229 19.5764 16.9301 19.4179 17.8914 18.919C18.5151 18.5954 19.3976 17.6318 19.7382 16.9027L20.0502 16.233V9.71101V3.18899L19.7092 2.49748C18.8904 0.82474 17.2868 -0.00589881 15.6891 0.000772285ZM15.7617 3.17443C15.8195 3.17478 15.8773 3.18053 15.9322 3.19263C16.1165 3.23322 16.4237 3.44749 16.618 3.66941L16.9735 4.0734V9.6819V15.2904L16.7123 15.6725C16.5686 15.8837 16.2988 16.1098 16.1136 16.1748C15.9285 16.2398 15.7195 16.2922 15.6492 16.2913C15.3694 16.2875 14.9352 15.977 14.6841 15.6034L14.4193 15.2103V9.72557C14.4197 4.49017 14.4279 4.22178 14.6442 3.86594C14.9 3.44508 15.3573 3.17171 15.7617 3.17443Z" fill="#516880"/>
<path d="M15.6891 0.000772285C14.0915 0.00744571 12.5023 0.850764 11.709 2.53024L11.3426 3.30546V9.71101V16.1166L11.709 16.8918C12.2777 18.0959 13.158 18.856 14.4773 19.2757C15.4229 19.5764 16.9301 19.4179 17.8914 18.919C18.5151 18.5954 19.3976 17.6318 19.7382 16.9027L20.0502 16.233V9.71101V3.18899L19.7092 2.49748C18.8904 0.82474 17.2868 -0.00589881 15.6891 0.000772285ZM15.7617 3.17443C15.8195 3.17478 15.8773 3.18053 15.9322 3.19263C16.1165 3.23322 16.4237 3.44749 16.618 3.66941L16.9735 4.0734V9.6819V15.2904L16.7123 15.6725C16.5686 15.8837 16.2988 16.1098 16.1136 16.1748C15.9285 16.2398 15.7195 16.2922 15.6492 16.2913C15.3694 16.2875 14.9352 15.977 14.6841 15.6034L14.4193 15.2103V9.72557C14.4197 4.49017 14.4279 4.22178 14.6442 3.86594C14.9 3.44508 15.3573 3.17171 15.7617 3.17443Z" fill="white" fill-opacity="0.5"/>
<path d="M52.2937 19.2144C50.9479 18.7136 50.0638 17.8511 49.5544 16.5417C49.3751 16.0809 49.3571 15.3027 49.3602 8.15621L49.3637 0.278675L50.9318 0.246271L52.5 0.213867L52.5017 7.75824C52.503 13.5883 52.5366 15.3688 52.6496 15.5938C52.73 15.7539 52.9805 15.9848 53.2063 16.1069C53.7137 16.3813 54.1388 16.297 54.6047 15.8297L54.9381 15.4952V7.85455V0.213867L56.5074 0.246271L58.0766 0.278675L58.0763 8.16061C58.0759 15.8629 58.0704 16.0573 57.834 16.6913C57.4924 17.607 56.6211 18.5263 55.6527 18.9926C54.643 19.4788 53.2514 19.5707 52.2937 19.2144H52.2937Z" fill="#516880"/>
<path d="M52.2937 19.2144C50.9479 18.7136 50.0638 17.8511 49.5544 16.5417C49.3751 16.0809 49.3571 15.3027 49.3602 8.15621L49.3637 0.278675L50.9318 0.246271L52.5 0.213867L52.5017 7.75824C52.503 13.5883 52.5366 15.3688 52.6496 15.5938C52.73 15.7539 52.9805 15.9848 53.2063 16.1069C53.7137 16.3813 54.1388 16.297 54.6047 15.8297L54.9381 15.4952V7.85455V0.213867L56.5074 0.246271L58.0766 0.278675L58.0763 8.16061C58.0759 15.8629 58.0704 16.0573 57.834 16.6913C57.4924 17.607 56.6211 18.5263 55.6527 18.9926C54.643 19.4788 53.2514 19.5707 52.2937 19.2144H52.2937Z" fill="white" fill-opacity="0.5"/>
<path d="M0.369507 9.71159V0.219727H4.25891H8.14831V1.85023V3.48074H5.88433H3.62035V5.69957V7.91841L5.04259 7.89859L6.46484 7.87877L6.49714 9.46485L6.52944 11.0509H5.0749H3.62035V15.1272V19.2035H1.99493H0.369507V9.71159Z" fill="#516880"/>
<path d="M0.369507 9.71159V0.219727H4.25891H8.14831V1.85023V3.48074H5.88433H3.62035V5.69957V7.91841L5.04259 7.89859L6.46484 7.87877L6.49714 9.46485L6.52944 11.0509H5.0749H3.62035V15.1272V19.2035H1.99493H0.369507V9.71159Z" fill="white" fill-opacity="0.5"/>
<path d="M24.404 9.71159V0.219727H26.8177C29.4461 0.219727 30.1655 0.32892 31.0803 0.866708C31.7704 1.27239 32.4916 2.08802 32.8586 2.87766C33.1554 3.51649 33.1672 3.6229 33.205 6.00803C33.2364 7.99292 33.2075 8.6204 33.0575 9.20793C32.8408 10.0562 32.446 10.7792 31.9005 11.3263L31.5148 11.7132L32.5325 15.2093C33.0922 17.1321 33.5856 18.8174 33.629 18.9544C33.707 19.201 33.6912 19.2035 32.0323 19.2035H30.3569L29.8693 17.3109C29.3834 15.4249 28.1427 10.7 28.0375 10.3346C27.9976 10.1962 28.0787 10.1211 28.3273 10.0663C28.7879 9.96483 29.62 9.2364 29.8178 8.76157C29.9326 8.48598 29.9769 7.79288 29.9769 6.27067V4.16161L29.6375 3.82117C29.3221 3.50481 29.2359 3.48074 28.4184 3.48074H27.5387V11.3421V19.2035H25.9714H24.404V9.71159Z" fill="#516880"/>
<path d="M24.404 9.71159V0.219727H26.8177C29.4461 0.219727 30.1655 0.32892 31.0803 0.866708C31.7704 1.27239 32.4916 2.08802 32.8586 2.87766C33.1554 3.51649 33.1672 3.6229 33.205 6.00803C33.2364 7.99292 33.2075 8.6204 33.0575 9.20793C32.8408 10.0562 32.446 10.7792 31.9005 11.3263L31.5148 11.7132L32.5325 15.2093C33.0922 17.1321 33.5856 18.8174 33.629 18.9544C33.707 19.201 33.6912 19.2035 32.0323 19.2035H30.3569L29.8693 17.3109C29.3834 15.4249 28.1427 10.7 28.0375 10.3346C27.9976 10.1962 28.0787 10.1211 28.3273 10.0663C28.7879 9.96483 29.62 9.2364 29.8178 8.76157C29.9326 8.48598 29.9769 7.79288 29.9769 6.27067V4.16161L29.6375 3.82117C29.3221 3.50481 29.2359 3.48074 28.4184 3.48074H27.5387V11.3421V19.2035H25.9714H24.404V9.71159Z" fill="white" fill-opacity="0.5"/>
<path d="M39.6116 19.1161C39.6109 19.0681 39.5979 15.5436 39.5826 11.2839L39.5548 3.53897L38.1325 3.50627L36.7103 3.47357V1.84665V0.219727H41.1221H45.534V1.85023V3.48074H44.1408H42.7475V11.3421V19.2035H41.1802C40.3181 19.2035 39.6123 19.1642 39.6116 19.1161Z" fill="#516880"/>
<path d="M39.6116 19.1161C39.6109 19.0681 39.5979 15.5436 39.5826 11.2839L39.5548 3.53897L38.1325 3.50627L36.7103 3.47357V1.84665V0.219727H41.1221H45.534V1.85023V3.48074H44.1408H42.7475V11.3421V19.2035H41.1802C40.3181 19.2035 39.6123 19.1642 39.6116 19.1161Z" fill="white" fill-opacity="0.5"/>
<path d="M62.252 9.71231V0.220442H63.8534H65.4548L65.5785 0.657185C65.6465 0.897393 66.1753 2.58758 66.7535 4.41317C67.3317 6.23875 67.9701 8.26961 68.1722 8.92617C68.3742 9.58274 68.5887 10.1199 68.6489 10.1199C68.7159 10.1199 68.7555 8.2083 68.751 5.19931L68.7435 0.278675L70.3159 0.246271L71.8884 0.213867V9.70902V19.2042H70.1129H68.3374L68.005 18.1269C67.8222 17.5344 67.5001 16.5068 67.2893 15.8433C67.0785 15.1799 66.6076 13.6731 66.2427 12.495C65.8779 11.3168 65.536 10.3529 65.483 10.3529C65.43 10.3529 65.3867 12.3444 65.3867 14.7785V19.2042H63.8193H62.252V9.71231H62.252Z" fill="#516880"/>
<path d="M62.252 9.71231V0.220442H63.8534H65.4548L65.5785 0.657185C65.6465 0.897393 66.1753 2.58758 66.7535 4.41317C67.3317 6.23875 67.9701 8.26961 68.1722 8.92617C68.3742 9.58274 68.5887 10.1199 68.6489 10.1199C68.7159 10.1199 68.7555 8.2083 68.751 5.19931L68.7435 0.278675L70.3159 0.246271L71.8884 0.213867V9.70902V19.2042H70.1129H68.3374L68.005 18.1269C67.8222 17.5344 67.5001 16.5068 67.2893 15.8433C67.0785 15.1799 66.6076 13.6731 66.2427 12.495C65.8779 11.3168 65.536 10.3529 65.483 10.3529C65.43 10.3529 65.3867 12.3444 65.3867 14.7785V19.2042H63.8193H62.252V9.71231H62.252Z" fill="white" fill-opacity="0.5"/>
<path d="M76.0687 9.71159V0.219727H79.9581H83.8475V1.85023V3.48074H81.5229H79.1984L79.2299 5.66445L79.2615 7.84816H80.7419H82.2224L82.2222 9.44955L82.2221 11.0509H80.7128H79.2035V13.4967V15.9425H81.5255H83.8476V17.573V19.2035H79.9581H76.0687V9.71159H76.0687Z" fill="#516880"/>
<path d="M76.0687 9.71159V0.219727H79.9581H83.8475V1.85023V3.48074H81.5229H79.1984L79.2299 5.66445L79.2615 7.84816H80.7419H82.2224L82.2222 9.44955L82.2221 11.0509H80.7128H79.2035V13.4967V15.9425H81.5255H83.8476V17.573V19.2035H79.9581H76.0687V9.71159H76.0687Z" fill="white" fill-opacity="0.5"/>
</g>
<defs>
<clipPath id="clip0_1_28599">
<rect width="83.477" height="19.43" fill="white" transform="translate(0.369507)"/>
</clipPath>
</defs>
</svg>
