<svg width="229" height="19" viewBox="0 0 229 19" fill="none" xmlns="http://www.w3.org/2000/svg">
<g clip-path="url(#clip0_1_28608)">
<path d="M227.323 16.7601C226.661 16.7601 226.109 17.3162 226.109 18.0667C226.109 18.8169 226.661 19.373 227.323 19.373C227.986 19.373 228.538 18.8169 228.538 18.0667C228.538 17.3162 227.986 16.7601 227.323 16.7601ZM183.381 19.2892H188.956V18.7892L188.349 18.6501C187.797 18.511 187.548 18.2055 187.548 17.4269V9.86796H188.846C189.646 9.86796 190.06 10.0624 190.115 11.758L190.253 15.3151C190.364 18.511 191.275 19.4006 192.821 19.4006C194.394 19.4006 194.808 18.3165 194.808 16.7881V16.1487H194.228V16.621C194.228 17.6497 194.09 18.3722 193.703 18.3722C193.345 18.3722 193.317 18.0944 193.234 16.8158L193.069 14.3705C192.848 11.0908 192.434 9.95135 190.032 9.50635C192.324 8.89528 193.731 7.19975 193.731 4.78171C193.731 1.64117 191.275 0.140453 188.929 0.140453H179.516V0.640808L180.041 0.751873C181.034 0.974374 181.062 1.50242 181.062 3.75367V14.8147C181.062 17.2885 180.372 18.4833 178.798 18.4833C177.391 18.4833 176.618 17.7885 176.618 15.0926V1.94705C176.618 1.16884 176.866 0.946707 177.473 0.807599L178.219 0.640808V0.140453H172.45V0.640808L173.057 0.807599C173.609 0.974385 173.802 1.19688 173.802 1.97473V14.8981C173.802 17.8162 175.486 19.4283 178.053 19.4283C180.62 19.4283 181.89 17.8162 181.89 14.8147V2.75296C181.89 1.25225 182.194 0.724195 183.408 0.724195C184.374 0.724195 184.789 1.05777 184.789 1.97473V17.4269C184.789 18.2055 184.54 18.4833 183.988 18.6224L183.381 18.7892V19.2892ZM220.423 1.97473C220.423 1.19688 220.671 0.946708 221.223 0.835277L221.968 0.668487V0.140453H216.227V0.640808L216.834 0.807599C217.387 0.974385 217.635 1.19688 217.635 1.97473V17.5387C217.635 18.2889 217.332 18.7058 216.475 18.7058C215.482 18.7058 215.344 18.3723 214.985 16.7328L211.452 0.0850957H210.348L206.981 16.2044C206.594 18.0106 206.401 18.428 205.655 18.6501L205.186 18.7892V19.2892H209.133V18.7892L208.554 18.6778C207.726 18.511 207.505 18.0667 207.919 15.9542L209.907 5.64331L212.087 16.5656C212.418 18.1498 212.391 18.4556 211.204 18.6778L210.624 18.7892V19.2892H225.253V12.9528H224.729C224.453 15.8708 223.873 18.6224 221.527 18.6224H220.423V1.97473ZM211.811 14.1199V13.3697H208.084L207.974 14.1199H211.811ZM196.409 2.30831V15.593C196.409 17.594 196.409 18.539 195.415 18.7058L194.918 18.7892V19.2892H198.976V18.7892C197.209 18.539 197.209 17.9276 197.209 15.7597V3.14223L196.547 2.53081L203.31 19.2892H204.468V3.83706C204.468 1.55813 204.468 1.05777 205.573 0.751873L205.959 0.640808V0.140453H201.791V0.640808L202.26 0.751873C203.668 1.00205 203.668 1.55814 203.668 3.67028V13.3417L203.944 13.2583L198.81 0.140453H194.863V0.640808L195.249 0.751873C195.692 0.890981 195.94 1.39135 196.409 2.30831ZM187.548 0.807599H188.653C189.757 0.807599 190.778 1.5301 190.778 5.14332C190.778 8.83957 190.005 9.20082 188.46 9.20082H187.548V0.807599ZM169.166 9.53438C169.166 17.566 168.503 18.7058 167.068 18.7058C165.632 18.7058 164.997 17.566 164.997 9.58974C164.997 1.86366 165.688 0.751873 167.068 0.751873C168.503 0.751873 169.166 1.86366 169.166 9.53438ZM172.174 9.70117C172.174 4.39278 170.49 0.00170898 167.068 0.00170898C163.618 0.00170898 161.989 4.39278 161.989 9.70117C161.989 15.0372 163.673 19.4283 167.068 19.4283C170.573 19.4283 172.174 15.0372 172.174 9.70117ZM160.361 1.97473C160.361 1.19688 160.554 0.946707 161.105 0.807599L161.713 0.640808V0.140453H155.999V0.640808L156.689 0.807599C157.241 0.946707 157.545 1.14116 157.545 1.94705V15.3151C157.545 17.1771 157.379 18.6778 155.999 18.6778C155.116 18.6778 154.453 17.983 154.481 17.483C154.563 16.621 155.999 16.6771 156.109 15.2871C156.192 14.2867 155.557 13.8697 154.978 13.7867C154.122 13.6753 153.074 14.3978 153.045 15.8431C153.018 17.7051 154.232 19.4006 156.303 19.4006C158.594 19.4006 160.361 17.8442 160.361 14.8701V1.97473ZM68.1685 1.97473C68.1685 1.19688 68.4169 0.946708 68.9689 0.835277L69.7143 0.668487V0.140453H63.973V0.640808L64.5803 0.807599C65.1322 0.974385 65.3807 1.19688 65.3807 1.97473V17.5387C65.3807 18.2889 65.0769 18.7058 64.2211 18.7058C63.2276 18.7058 63.062 18.3723 62.7032 16.7328L59.17 0.0850957H58.0662L54.6986 16.2044C54.3123 18.0106 54.1188 18.428 53.3738 18.6501L52.9043 18.7892V19.2892H56.8516V18.7892L56.2719 18.6778C55.444 18.511 55.223 18.0667 55.6371 15.9542L57.6245 5.5876L59.8051 16.5656C60.1085 18.1498 60.1085 18.4556 58.9219 18.6778L58.3421 18.7892V19.2892H72.999V12.9528H72.4746C72.1986 15.8708 71.6189 18.6224 69.2727 18.6224H68.1685V1.97473ZM145.013 0.807599H145.621C147.332 0.807599 147.912 3.55885 148.105 6.47724H148.629V0.140453H138.609V6.47724H139.134C139.327 3.55885 139.907 0.807599 141.618 0.807599H142.226V17.4269C142.226 18.2055 141.977 18.4833 141.425 18.6224L140.708 18.7892V19.2892H146.67V18.7892L145.814 18.5947C145.289 18.4556 145.013 18.2889 145.013 17.4269V0.807599ZM132.399 9.67314L133.255 9.70117C134.497 9.72886 134.855 10.2015 135.104 13.231H135.629V5.50456H135.104C134.8 7.9226 134.469 8.95063 133.282 8.97867L132.399 9.00636V0.807616H134.304C136.429 0.807616 136.898 3.50351 137.202 6.47726H137.726V0.14047H128.204V0.640826L128.811 0.807616C129.445 0.974402 129.611 1.36369 129.611 2.0028V17.4269C129.611 18.2055 129.363 18.4833 128.811 18.6224L128.204 18.7892V19.2892H138.002V12.9528H137.478C137.146 15.8432 136.788 18.6224 134.304 18.6224H132.399V9.67314ZM121.993 9.67314L122.849 9.70117C124.091 9.72886 124.45 10.2015 124.698 13.231H125.222V5.50456H124.698C124.395 7.9226 124.063 8.95063 122.877 8.97867L121.993 9.00636V0.807616H123.898C126.023 0.807616 126.492 3.55887 126.796 6.47726H127.32V0.14047H117.522V0.640826L118.405 0.807616C119.04 0.974402 119.205 1.36369 119.205 2.0028V17.4269C119.205 18.2055 118.957 18.4833 118.405 18.6224L117.798 18.7892V19.2892H127.596V12.9528H127.072C126.741 15.8432 126.382 18.6224 123.898 18.6224H121.993V9.67314ZM110.648 0.807599H111.477C112.58 0.807599 113.602 1.5301 113.602 5.14332C113.602 8.78386 112.829 9.20082 111.283 9.20082H110.648V0.807599ZM106.48 19.2892H112.056V18.7892L111.449 18.6501C110.897 18.511 110.648 18.2055 110.648 17.4269V9.86796H111.67C112.47 9.86796 112.884 10.2015 112.94 11.758L113.077 15.3151C113.188 18.511 114.099 19.4006 115.645 19.4006C117.218 19.4006 117.632 18.3165 117.632 16.7881V16.1487H117.052V16.621C117.052 17.6497 116.914 18.3722 116.528 18.3722C116.169 18.3722 116.141 18.0944 116.059 16.8158L115.893 14.3705C115.672 11.0074 115.23 9.95135 112.857 9.50635C115.148 8.89528 116.555 7.19975 116.555 4.78171C116.555 1.64117 114.099 0.140453 111.753 0.140453H106.48V0.640808L107.088 0.807599C107.64 0.974385 107.888 1.19688 107.888 1.97473V17.4269C107.888 18.2055 107.64 18.4833 107.088 18.6224L106.48 18.7892V19.2892ZM102.257 0.807599H102.865C104.576 0.807599 105.156 3.55885 105.349 6.47724H105.873V0.140453H95.8536V6.47724H96.3781C96.5712 3.55885 97.151 0.807599 98.8624 0.807599H99.4697V17.4269C99.4697 18.2055 99.2208 18.4833 98.6693 18.6224L97.9514 18.7892V19.2892H103.775V18.7892L103.058 18.6224C102.34 18.4556 102.257 17.8999 102.257 17.4269V0.807599ZM95.8811 14.3144C95.8811 8.61706 89.6708 7.11635 89.6708 2.97546C89.6708 2.08617 90.0021 0.751873 91.3819 0.751873C93.3693 0.751873 94.1147 3.33671 94.446 6.47724H94.9704V0.140453H94.6391C94.501 0.751882 94.2525 1.0301 93.8941 1.0301C93.259 1.0301 92.9277 0.0293875 91.4097 0.0293875C89.0635 0.0293875 87.4624 2.00278 87.4624 4.58724C87.4624 9.28421 93.6731 11.2572 93.6731 15.593C93.6731 17.566 92.762 18.6778 91.5201 18.6778C89.6708 18.6778 88.4563 16.4826 88.125 12.9528H87.6006V19.2892H87.9319C88.2078 18.3722 88.5666 18.2889 88.87 18.2889C89.3948 18.2889 89.9468 19.4006 91.5475 19.4006C94.0044 19.4006 95.8811 17.2608 95.8811 14.3144ZM77.8017 1.97473C77.8017 1.19688 78.0502 0.946708 78.6021 0.835277L79.3475 0.668487V0.140453H73.6063V0.640808L74.2135 0.807599C74.7654 0.974385 75.0139 1.19688 75.0139 1.97473V17.4269C75.0139 18.2055 74.7654 18.4833 74.2135 18.6224L73.6063 18.7892V19.2892H82.6322V12.9528H82.1074C81.8318 15.8708 81.2521 18.6224 78.9059 18.6224H77.8017V1.97473ZM59.5288 14.1199V13.3697H55.8028L55.6921 14.1199H59.5288ZM43.5749 19.3449H44.7066L47.2734 5.67135H46.8871L49.7024 19.3449H50.6963L54.0639 3.22564C54.4226 1.5301 54.6158 0.946697 55.2784 0.779552L55.8028 0.640808V0.140453H51.9108V0.640808L52.4906 0.751873C53.3184 0.918659 53.5116 1.41902 53.1253 3.47545L50.9448 14.2867H51.2761L49.0677 2.89206C48.8467 1.80795 48.7089 0.918659 49.6199 0.751873L50.2268 0.640808V0.140453H44.8997V0.640808L45.2585 0.724195C45.8108 0.862943 45.8936 1.19688 46.1142 2.25296L46.9699 6.39384L46.8043 3.89241L44.8997 14.0088H45.1482L42.9123 2.89206C42.6638 1.75259 42.581 0.890981 43.4642 0.724195L43.8787 0.640808V0.140453H38.4409V0.640808L38.9653 0.779552C39.4619 0.91866 39.7382 1.16884 40.0695 2.69723L43.5749 19.3449ZM28.8352 9.67314L29.6909 9.70117C30.9329 9.72886 31.2917 10.2015 31.5401 13.231H32.0646V5.50456H31.5401C31.2367 7.9226 30.9054 8.95063 29.7184 8.97867L28.8352 9.00636V0.807616H30.7398C32.865 0.807616 33.3344 3.55887 33.6379 6.47726H34.1623V0.14047H24.6397V0.640826L25.247 0.807616C25.8817 0.974402 26.0474 1.36369 26.0474 2.0028V17.4269C26.0474 18.2055 25.7989 18.4833 25.247 18.6224L24.6397 18.7892V19.2892H34.4386V12.9528H33.9138C33.5829 15.8432 33.2241 18.6224 30.7398 18.6224H28.8352V9.67314ZM11.4733 19.2892H17.1317V18.7892L16.497 18.6501C16 18.539 15.6687 18.2055 15.6687 17.4269V9.84028H19.8367V17.4269C19.8367 18.2055 19.5058 18.539 19.0088 18.6501L18.3741 18.7892V19.2892H24.0325V18.7892L23.4252 18.6224C22.8733 18.4833 22.6245 18.1774 22.6245 17.3996V1.97473C22.6245 1.19688 22.8733 0.946707 23.4252 0.807599L24.0325 0.640808V0.140453H18.3741V0.640808L19.0088 0.807599C19.4779 0.946707 19.8367 1.14116 19.8367 1.94705V9.08973H15.6687V1.94705C15.6687 1.16884 15.9726 0.946707 16.497 0.807599L17.1317 0.640808V0.140453H11.4733V0.640808L12.0806 0.807599C12.6328 0.974385 12.881 1.19688 12.881 1.97473V17.4269C12.881 18.2055 12.6328 18.4833 12.0806 18.6224L11.4733 18.7892V19.2892ZM7.25003 0.807599H7.85764C9.56873 0.807599 10.1485 3.55885 10.3416 6.47724H10.8661V0.140453H0.846558V6.47724H1.37099C1.56412 3.55885 2.14389 0.807599 3.85498 0.807599H4.46223V17.4269C4.46223 18.2055 4.21412 18.4833 3.66184 18.6224L2.94428 18.7892V19.2892H8.9065V18.7892L8.05077 18.5947C7.52634 18.4556 7.25003 18.2889 7.25003 17.4269V0.807599Z" fill="#516880"/>
<path d="M227.323 16.7601C226.661 16.7601 226.109 17.3162 226.109 18.0667C226.109 18.8169 226.661 19.373 227.323 19.373C227.986 19.373 228.538 18.8169 228.538 18.0667C228.538 17.3162 227.986 16.7601 227.323 16.7601ZM183.381 19.2892H188.956V18.7892L188.349 18.6501C187.797 18.511 187.548 18.2055 187.548 17.4269V9.86796H188.846C189.646 9.86796 190.06 10.0624 190.115 11.758L190.253 15.3151C190.364 18.511 191.275 19.4006 192.821 19.4006C194.394 19.4006 194.808 18.3165 194.808 16.7881V16.1487H194.228V16.621C194.228 17.6497 194.09 18.3722 193.703 18.3722C193.345 18.3722 193.317 18.0944 193.234 16.8158L193.069 14.3705C192.848 11.0908 192.434 9.95135 190.032 9.50635C192.324 8.89528 193.731 7.19975 193.731 4.78171C193.731 1.64117 191.275 0.140453 188.929 0.140453H179.516V0.640808L180.041 0.751873C181.034 0.974374 181.062 1.50242 181.062 3.75367V14.8147C181.062 17.2885 180.372 18.4833 178.798 18.4833C177.391 18.4833 176.618 17.7885 176.618 15.0926V1.94705C176.618 1.16884 176.866 0.946707 177.473 0.807599L178.219 0.640808V0.140453H172.45V0.640808L173.057 0.807599C173.609 0.974385 173.802 1.19688 173.802 1.97473V14.8981C173.802 17.8162 175.486 19.4283 178.053 19.4283C180.62 19.4283 181.89 17.8162 181.89 14.8147V2.75296C181.89 1.25225 182.194 0.724195 183.408 0.724195C184.374 0.724195 184.789 1.05777 184.789 1.97473V17.4269C184.789 18.2055 184.54 18.4833 183.988 18.6224L183.381 18.7892V19.2892ZM220.423 1.97473C220.423 1.19688 220.671 0.946708 221.223 0.835277L221.968 0.668487V0.140453H216.227V0.640808L216.834 0.807599C217.387 0.974385 217.635 1.19688 217.635 1.97473V17.5387C217.635 18.2889 217.332 18.7058 216.475 18.7058C215.482 18.7058 215.344 18.3723 214.985 16.7328L211.452 0.0850957H210.348L206.981 16.2044C206.594 18.0106 206.401 18.428 205.655 18.6501L205.186 18.7892V19.2892H209.133V18.7892L208.554 18.6778C207.726 18.511 207.505 18.0667 207.919 15.9542L209.907 5.64331L212.087 16.5656C212.418 18.1498 212.391 18.4556 211.204 18.6778L210.624 18.7892V19.2892H225.253V12.9528H224.729C224.453 15.8708 223.873 18.6224 221.527 18.6224H220.423V1.97473ZM211.811 14.1199V13.3697H208.084L207.974 14.1199H211.811ZM196.409 2.30831V15.593C196.409 17.594 196.409 18.539 195.415 18.7058L194.918 18.7892V19.2892H198.976V18.7892C197.209 18.539 197.209 17.9276 197.209 15.7597V3.14223L196.547 2.53081L203.31 19.2892H204.468V3.83706C204.468 1.55813 204.468 1.05777 205.573 0.751873L205.959 0.640808V0.140453H201.791V0.640808L202.26 0.751873C203.668 1.00205 203.668 1.55814 203.668 3.67028V13.3417L203.944 13.2583L198.81 0.140453H194.863V0.640808L195.249 0.751873C195.692 0.890981 195.94 1.39135 196.409 2.30831ZM187.548 0.807599H188.653C189.757 0.807599 190.778 1.5301 190.778 5.14332C190.778 8.83957 190.005 9.20082 188.46 9.20082H187.548V0.807599ZM169.166 9.53438C169.166 17.566 168.503 18.7058 167.068 18.7058C165.632 18.7058 164.997 17.566 164.997 9.58974C164.997 1.86366 165.688 0.751873 167.068 0.751873C168.503 0.751873 169.166 1.86366 169.166 9.53438ZM172.174 9.70117C172.174 4.39278 170.49 0.00170898 167.068 0.00170898C163.618 0.00170898 161.989 4.39278 161.989 9.70117C161.989 15.0372 163.673 19.4283 167.068 19.4283C170.573 19.4283 172.174 15.0372 172.174 9.70117ZM160.361 1.97473C160.361 1.19688 160.554 0.946707 161.105 0.807599L161.713 0.640808V0.140453H155.999V0.640808L156.689 0.807599C157.241 0.946707 157.545 1.14116 157.545 1.94705V15.3151C157.545 17.1771 157.379 18.6778 155.999 18.6778C155.116 18.6778 154.453 17.983 154.481 17.483C154.563 16.621 155.999 16.6771 156.109 15.2871C156.192 14.2867 155.557 13.8697 154.978 13.7867C154.122 13.6753 153.074 14.3978 153.045 15.8431C153.018 17.7051 154.232 19.4006 156.303 19.4006C158.594 19.4006 160.361 17.8442 160.361 14.8701V1.97473ZM68.1685 1.97473C68.1685 1.19688 68.4169 0.946708 68.9689 0.835277L69.7143 0.668487V0.140453H63.973V0.640808L64.5803 0.807599C65.1322 0.974385 65.3807 1.19688 65.3807 1.97473V17.5387C65.3807 18.2889 65.0769 18.7058 64.2211 18.7058C63.2276 18.7058 63.062 18.3723 62.7032 16.7328L59.17 0.0850957H58.0662L54.6986 16.2044C54.3123 18.0106 54.1188 18.428 53.3738 18.6501L52.9043 18.7892V19.2892H56.8516V18.7892L56.2719 18.6778C55.444 18.511 55.223 18.0667 55.6371 15.9542L57.6245 5.5876L59.8051 16.5656C60.1085 18.1498 60.1085 18.4556 58.9219 18.6778L58.3421 18.7892V19.2892H72.999V12.9528H72.4746C72.1986 15.8708 71.6189 18.6224 69.2727 18.6224H68.1685V1.97473ZM145.013 0.807599H145.621C147.332 0.807599 147.912 3.55885 148.105 6.47724H148.629V0.140453H138.609V6.47724H139.134C139.327 3.55885 139.907 0.807599 141.618 0.807599H142.226V17.4269C142.226 18.2055 141.977 18.4833 141.425 18.6224L140.708 18.7892V19.2892H146.67V18.7892L145.814 18.5947C145.289 18.4556 145.013 18.2889 145.013 17.4269V0.807599ZM132.399 9.67314L133.255 9.70117C134.497 9.72886 134.855 10.2015 135.104 13.231H135.629V5.50456H135.104C134.8 7.9226 134.469 8.95063 133.282 8.97867L132.399 9.00636V0.807616H134.304C136.429 0.807616 136.898 3.50351 137.202 6.47726H137.726V0.14047H128.204V0.640826L128.811 0.807616C129.445 0.974402 129.611 1.36369 129.611 2.0028V17.4269C129.611 18.2055 129.363 18.4833 128.811 18.6224L128.204 18.7892V19.2892H138.002V12.9528H137.478C137.146 15.8432 136.788 18.6224 134.304 18.6224H132.399V9.67314ZM121.993 9.67314L122.849 9.70117C124.091 9.72886 124.45 10.2015 124.698 13.231H125.222V5.50456H124.698C124.395 7.9226 124.063 8.95063 122.877 8.97867L121.993 9.00636V0.807616H123.898C126.023 0.807616 126.492 3.55887 126.796 6.47726H127.32V0.14047H117.522V0.640826L118.405 0.807616C119.04 0.974402 119.205 1.36369 119.205 2.0028V17.4269C119.205 18.2055 118.957 18.4833 118.405 18.6224L117.798 18.7892V19.2892H127.596V12.9528H127.072C126.741 15.8432 126.382 18.6224 123.898 18.6224H121.993V9.67314ZM110.648 0.807599H111.477C112.58 0.807599 113.602 1.5301 113.602 5.14332C113.602 8.78386 112.829 9.20082 111.283 9.20082H110.648V0.807599ZM106.48 19.2892H112.056V18.7892L111.449 18.6501C110.897 18.511 110.648 18.2055 110.648 17.4269V9.86796H111.67C112.47 9.86796 112.884 10.2015 112.94 11.758L113.077 15.3151C113.188 18.511 114.099 19.4006 115.645 19.4006C117.218 19.4006 117.632 18.3165 117.632 16.7881V16.1487H117.052V16.621C117.052 17.6497 116.914 18.3722 116.528 18.3722C116.169 18.3722 116.141 18.0944 116.059 16.8158L115.893 14.3705C115.672 11.0074 115.23 9.95135 112.857 9.50635C115.148 8.89528 116.555 7.19975 116.555 4.78171C116.555 1.64117 114.099 0.140453 111.753 0.140453H106.48V0.640808L107.088 0.807599C107.64 0.974385 107.888 1.19688 107.888 1.97473V17.4269C107.888 18.2055 107.64 18.4833 107.088 18.6224L106.48 18.7892V19.2892ZM102.257 0.807599H102.865C104.576 0.807599 105.156 3.55885 105.349 6.47724H105.873V0.140453H95.8536V6.47724H96.3781C96.5712 3.55885 97.151 0.807599 98.8624 0.807599H99.4697V17.4269C99.4697 18.2055 99.2208 18.4833 98.6693 18.6224L97.9514 18.7892V19.2892H103.775V18.7892L103.058 18.6224C102.34 18.4556 102.257 17.8999 102.257 17.4269V0.807599ZM95.8811 14.3144C95.8811 8.61706 89.6708 7.11635 89.6708 2.97546C89.6708 2.08617 90.0021 0.751873 91.3819 0.751873C93.3693 0.751873 94.1147 3.33671 94.446 6.47724H94.9704V0.140453H94.6391C94.501 0.751882 94.2525 1.0301 93.8941 1.0301C93.259 1.0301 92.9277 0.0293875 91.4097 0.0293875C89.0635 0.0293875 87.4624 2.00278 87.4624 4.58724C87.4624 9.28421 93.6731 11.2572 93.6731 15.593C93.6731 17.566 92.762 18.6778 91.5201 18.6778C89.6708 18.6778 88.4563 16.4826 88.125 12.9528H87.6006V19.2892H87.9319C88.2078 18.3722 88.5666 18.2889 88.87 18.2889C89.3948 18.2889 89.9468 19.4006 91.5475 19.4006C94.0044 19.4006 95.8811 17.2608 95.8811 14.3144ZM77.8017 1.97473C77.8017 1.19688 78.0502 0.946708 78.6021 0.835277L79.3475 0.668487V0.140453H73.6063V0.640808L74.2135 0.807599C74.7654 0.974385 75.0139 1.19688 75.0139 1.97473V17.4269C75.0139 18.2055 74.7654 18.4833 74.2135 18.6224L73.6063 18.7892V19.2892H82.6322V12.9528H82.1074C81.8318 15.8708 81.2521 18.6224 78.9059 18.6224H77.8017V1.97473ZM59.5288 14.1199V13.3697H55.8028L55.6921 14.1199H59.5288ZM43.5749 19.3449H44.7066L47.2734 5.67135H46.8871L49.7024 19.3449H50.6963L54.0639 3.22564C54.4226 1.5301 54.6158 0.946697 55.2784 0.779552L55.8028 0.640808V0.140453H51.9108V0.640808L52.4906 0.751873C53.3184 0.918659 53.5116 1.41902 53.1253 3.47545L50.9448 14.2867H51.2761L49.0677 2.89206C48.8467 1.80795 48.7089 0.918659 49.6199 0.751873L50.2268 0.640808V0.140453H44.8997V0.640808L45.2585 0.724195C45.8108 0.862943 45.8936 1.19688 46.1142 2.25296L46.9699 6.39384L46.8043 3.89241L44.8997 14.0088H45.1482L42.9123 2.89206C42.6638 1.75259 42.581 0.890981 43.4642 0.724195L43.8787 0.640808V0.140453H38.4409V0.640808L38.9653 0.779552C39.4619 0.91866 39.7382 1.16884 40.0695 2.69723L43.5749 19.3449ZM28.8352 9.67314L29.6909 9.70117C30.9329 9.72886 31.2917 10.2015 31.5401 13.231H32.0646V5.50456H31.5401C31.2367 7.9226 30.9054 8.95063 29.7184 8.97867L28.8352 9.00636V0.807616H30.7398C32.865 0.807616 33.3344 3.55887 33.6379 6.47726H34.1623V0.14047H24.6397V0.640826L25.247 0.807616C25.8817 0.974402 26.0474 1.36369 26.0474 2.0028V17.4269C26.0474 18.2055 25.7989 18.4833 25.247 18.6224L24.6397 18.7892V19.2892H34.4386V12.9528H33.9138C33.5829 15.8432 33.2241 18.6224 30.7398 18.6224H28.8352V9.67314ZM11.4733 19.2892H17.1317V18.7892L16.497 18.6501C16 18.539 15.6687 18.2055 15.6687 17.4269V9.84028H19.8367V17.4269C19.8367 18.2055 19.5058 18.539 19.0088 18.6501L18.3741 18.7892V19.2892H24.0325V18.7892L23.4252 18.6224C22.8733 18.4833 22.6245 18.1774 22.6245 17.3996V1.97473C22.6245 1.19688 22.8733 0.946707 23.4252 0.807599L24.0325 0.640808V0.140453H18.3741V0.640808L19.0088 0.807599C19.4779 0.946707 19.8367 1.14116 19.8367 1.94705V9.08973H15.6687V1.94705C15.6687 1.16884 15.9726 0.946707 16.497 0.807599L17.1317 0.640808V0.140453H11.4733V0.640808L12.0806 0.807599C12.6328 0.974385 12.881 1.19688 12.881 1.97473V17.4269C12.881 18.2055 12.6328 18.4833 12.0806 18.6224L11.4733 18.7892V19.2892ZM7.25003 0.807599H7.85764C9.56873 0.807599 10.1485 3.55885 10.3416 6.47724H10.8661V0.140453H0.846558V6.47724H1.37099C1.56412 3.55885 2.14389 0.807599 3.85498 0.807599H4.46223V17.4269C4.46223 18.2055 4.21412 18.4833 3.66184 18.6224L2.94428 18.7892V19.2892H8.9065V18.7892L8.05077 18.5947C7.52634 18.4556 7.25003 18.2889 7.25003 17.4269V0.807599Z" fill="white" fill-opacity="0.5"/>
</g>
<defs>
<clipPath id="clip0_1_28608">
<rect width="227.691" height="19.4266" fill="white" transform="translate(0.846558 0.00170898)"/>
</clipPath>
</defs>
</svg>
